<?xml version="1.0" encoding="UTF-8" standalone="no"?>
<!-- Created with Inkscape (http://www.inkscape.org/) -->

<svg
   xmlns:dc="http://purl.org/dc/elements/1.1/"
   xmlns:cc="http://creativecommons.org/ns#"
   xmlns:rdf="http://www.w3.org/1999/02/22-rdf-syntax-ns#"
   xmlns:svg="http://www.w3.org/2000/svg"
   xmlns="http://www.w3.org/2000/svg"
   xmlns:xlink="http://www.w3.org/1999/xlink"
   xmlns:sodipodi="http://sodipodi.sourceforge.net/DTD/sodipodi-0.dtd"
   xmlns:inkscape="http://www.inkscape.org/namespaces/inkscape"
   width="765"
   height="990"
   id="svg2"
   version="1.1"
   inkscape:version="0.48.4 r9939"
   sodipodi:docname="play_buttons.svg">
  <defs
     id="defs4">
    <linearGradient
       id="linearGradient3240">
      <stop
         style="stop-color:#cccccc;stop-opacity:1;"
         offset="0"
         id="stop3242" />
      <stop
         style="stop-color:#000000;stop-opacity:1;"
         offset="1"
         id="stop3244" />
    </linearGradient>
    <linearGradient
       id="linearGradient4097">
      <stop
         style="stop-color:#b2b2b2;stop-opacity:1;"
         offset="0"
         id="stop4099" />
      <stop
         style="stop-color:#666666;stop-opacity:1;"
         offset="1"
         id="stop4101" />
    </linearGradient>
    <linearGradient
       id="linearGradient3904">
      <stop
         style="stop-color:#9b9c9d;stop-opacity:1;"
         offset="0"
         id="stop3906" />
      <stop
         style="stop-color:#000000;stop-opacity:1;"
         offset="1"
         id="stop3908" />
    </linearGradient>
    <linearGradient
       id="linearGradient3848">
      <stop
         style="stop-color:#333333;stop-opacity:1;"
         offset="0"
         id="stop3850" />
      <stop
         style="stop-color:#000000;stop-opacity:0;"
         offset="1"
         id="stop3852" />
    </linearGradient>
    <linearGradient
       inkscape:collect="always"
       xlink:href="#linearGradient3904-2"
       id="linearGradient3910-1"
       x1="311.85626"
       y1="341.18857"
       x2="312.18066"
       y2="397.63632"
       gradientUnits="userSpaceOnUse" />
    <linearGradient
       id="linearGradient3904-2">
      <stop
         style="stop-color:#9b9c9d;stop-opacity:1;"
         offset="0"
         id="stop3906-9" />
      <stop
         style="stop-color:#000000;stop-opacity:1;"
         offset="1"
         id="stop3908-6" />
    </linearGradient>
    <linearGradient
       inkscape:collect="always"
       xlink:href="#linearGradient3904-1"
       id="linearGradient3910-0"
       x1="311.51395"
       y1="300.05264"
       x2="312.18066"
       y2="397.63632"
       gradientUnits="userSpaceOnUse" />
    <linearGradient
       id="linearGradient3904-1">
      <stop
         style="stop-color:#cacccc;stop-opacity:1;"
         offset="0"
         id="stop3906-8" />
      <stop
         style="stop-color:#666666;stop-opacity:1;"
         offset="1"
         id="stop3908-5" />
    </linearGradient>
    <linearGradient
       y2="397.63632"
       x2="312.18066"
       y1="341.18857"
       x1="311.85626"
       gradientUnits="userSpaceOnUse"
       id="linearGradient3963"
       xlink:href="#linearGradient3904-1"
       inkscape:collect="always" />
    <linearGradient
       inkscape:collect="always"
       xlink:href="#linearGradient3904-1-6"
       id="linearGradient3910-0-4"
       x1="311.51395"
       y1="300.05264"
       x2="312.18066"
       y2="397.63632"
       gradientUnits="userSpaceOnUse" />
    <linearGradient
       id="linearGradient3904-1-6">
      <stop
         style="stop-color:#cfd1d2;stop-opacity:1;"
         offset="0"
         id="stop3906-8-2" />
      <stop
         style="stop-color:#999999;stop-opacity:1;"
         offset="1"
         id="stop3908-5-9" />
    </linearGradient>
    <linearGradient
       inkscape:collect="always"
       xlink:href="#linearGradient3904-1-65"
       id="linearGradient3910-0-9"
       x1="311.51395"
       y1="300.05264"
       x2="312.18066"
       y2="397.63632"
       gradientUnits="userSpaceOnUse" />
    <linearGradient
       id="linearGradient3904-1-65">
      <stop
         style="stop-color:#cfd1d2;stop-opacity:1;"
         offset="0"
         id="stop3906-8-9" />
      <stop
         style="stop-color:#999999;stop-opacity:1;"
         offset="1"
         id="stop3908-5-4" />
    </linearGradient>
    <filter
       inkscape:collect="always"
       id="filter4093"
       color-interpolation-filters="sRGB">
      <feGaussianBlur
         inkscape:collect="always"
         stdDeviation="2.9781047"
         id="feGaussianBlur4095" />
    </filter>
    <linearGradient
       inkscape:collect="always"
       xlink:href="#linearGradient4097"
       id="linearGradient4103"
       x1="311.11218"
       y1="298.11319"
       x2="311.63062"
       y2="397.13428"
       gradientUnits="userSpaceOnUse" />
    <linearGradient
       id="linearGradient4097-5">
      <stop
         style="stop-color:#b2b2b2;stop-opacity:1;"
         offset="0"
         id="stop4099-8" />
      <stop
         style="stop-color:#666666;stop-opacity:1;"
         offset="1"
         id="stop4101-2" />
    </linearGradient>
    <linearGradient
       id="linearGradient3904-1-3">
      <stop
         style="stop-color:#cacccc;stop-opacity:1;"
         offset="0"
         id="stop3906-8-26" />
      <stop
         style="stop-color:#666666;stop-opacity:1;"
         offset="1"
         id="stop3908-5-8" />
    </linearGradient>
    <linearGradient
       id="linearGradient4097-5-2">
      <stop
         style="stop-color:#b2b2b2;stop-opacity:1;"
         offset="0"
         id="stop4099-8-5" />
      <stop
         style="stop-color:#666666;stop-opacity:1;"
         offset="1"
         id="stop4101-2-5" />
    </linearGradient>
    <linearGradient
       id="linearGradient3904-1-3-0">
      <stop
         style="stop-color:#cacccc;stop-opacity:1;"
         offset="0"
         id="stop3906-8-26-8" />
      <stop
         style="stop-color:#666666;stop-opacity:1;"
         offset="1"
         id="stop3908-5-8-8" />
    </linearGradient>
    <linearGradient
       id="linearGradient4097-5-21">
      <stop
         style="stop-color:#b2b2b2;stop-opacity:1;"
         offset="0"
         id="stop4099-8-2" />
      <stop
         style="stop-color:#666666;stop-opacity:1;"
         offset="1"
         id="stop4101-2-6" />
    </linearGradient>
    <linearGradient
       id="linearGradient3904-1-3-05">
      <stop
         style="stop-color:#cacccc;stop-opacity:1;"
         offset="0"
         id="stop3906-8-26-6" />
      <stop
         style="stop-color:#666666;stop-opacity:1;"
         offset="1"
         id="stop3908-5-8-84" />
    </linearGradient>
    <linearGradient
       id="linearGradient4097-5-21-5">
      <stop
         style="stop-color:#b2b2b2;stop-opacity:1;"
         offset="0"
         id="stop4099-8-2-4" />
      <stop
         style="stop-color:#666666;stop-opacity:1;"
         offset="1"
         id="stop4101-2-6-4" />
    </linearGradient>
    <linearGradient
       id="linearGradient3904-1-3-05-2">
      <stop
         style="stop-color:#cacccc;stop-opacity:1;"
         offset="0"
         id="stop3906-8-26-6-5" />
      <stop
         style="stop-color:#666666;stop-opacity:1;"
         offset="1"
         id="stop3908-5-8-84-7" />
    </linearGradient>
    <linearGradient
       id="linearGradient4097-59">
      <stop
         style="stop-color:#b2b2b2;stop-opacity:1;"
         offset="0"
         id="stop4099-1" />
      <stop
         style="stop-color:#666666;stop-opacity:1;"
         offset="1"
         id="stop4101-5" />
    </linearGradient>
    <linearGradient
       id="linearGradient3904-1-4">
      <stop
         style="stop-color:#cacccc;stop-opacity:1;"
         offset="0"
         id="stop3906-8-1" />
      <stop
         style="stop-color:#666666;stop-opacity:1;"
         offset="1"
         id="stop3908-5-5" />
    </linearGradient>
    <linearGradient
       inkscape:collect="always"
       xlink:href="#linearGradient4097"
       id="linearGradient4416"
       gradientUnits="userSpaceOnUse"
       x1="311.11218"
       y1="298.11319"
       x2="311.63062"
       y2="397.13428" />
    <linearGradient
       inkscape:collect="always"
       xlink:href="#linearGradient3904-1"
       id="linearGradient4418"
       gradientUnits="userSpaceOnUse"
       x1="311.51395"
       y1="300.05264"
       x2="312.18066"
       y2="397.63632" />
    <linearGradient
       inkscape:collect="always"
       xlink:href="#linearGradient4097"
       id="linearGradient4433"
       gradientUnits="userSpaceOnUse"
       x1="311.11218"
       y1="298.11319"
       x2="311.63062"
       y2="397.13428" />
    <linearGradient
       inkscape:collect="always"
       xlink:href="#linearGradient3904-1"
       id="linearGradient4435"
       gradientUnits="userSpaceOnUse"
       x1="311.51395"
       y1="300.05264"
       x2="312.18066"
       y2="397.63632" />
    <linearGradient
       inkscape:collect="always"
       xlink:href="#linearGradient4097"
       id="linearGradient4446"
       gradientUnits="userSpaceOnUse"
       x1="311.11218"
       y1="298.11319"
       x2="311.63062"
       y2="397.13428" />
    <linearGradient
       inkscape:collect="always"
       xlink:href="#linearGradient3904-1"
       id="linearGradient4448"
       gradientUnits="userSpaceOnUse"
       x1="311.51395"
       y1="300.05264"
       x2="312.18066"
       y2="397.63632" />
    <linearGradient
       id="linearGradient4097-0">
      <stop
         style="stop-color:#b2b2b2;stop-opacity:1;"
         offset="0"
         id="stop4099-4" />
      <stop
         style="stop-color:#666666;stop-opacity:1;"
         offset="1"
         id="stop4101-50" />
    </linearGradient>
    <linearGradient
       id="linearGradient3904-1-0">
      <stop
         style="stop-color:#cacccc;stop-opacity:1;"
         offset="0"
         id="stop3906-8-5" />
      <stop
         style="stop-color:#666666;stop-opacity:1;"
         offset="1"
         id="stop3908-5-86" />
    </linearGradient>
    <filter
       color-interpolation-filters="sRGB"
       inkscape:collect="always"
       id="filter4093-9-0">
      <feGaussianBlur
         inkscape:collect="always"
         stdDeviation="2.9781047"
         id="feGaussianBlur4095-9-3" />
    </filter>
    <linearGradient
       inkscape:collect="always"
       xlink:href="#linearGradient4097-0-9"
       id="linearGradient4446-2-7"
       gradientUnits="userSpaceOnUse"
       x1="311.11218"
       y1="298.11319"
       x2="311.63062"
       y2="397.13428" />
    <linearGradient
       id="linearGradient4097-0-9">
      <stop
         style="stop-color:#b2b2b2;stop-opacity:1;"
         offset="0"
         id="stop4099-4-3" />
      <stop
         style="stop-color:#666666;stop-opacity:1;"
         offset="1"
         id="stop4101-50-0" />
    </linearGradient>
    <linearGradient
       inkscape:collect="always"
       xlink:href="#linearGradient3904-1-0-0"
       id="linearGradient4448-5-9"
       gradientUnits="userSpaceOnUse"
       x1="311.51395"
       y1="300.05264"
       x2="312.18066"
       y2="397.63632" />
    <linearGradient
       id="linearGradient3904-1-0-0">
      <stop
         style="stop-color:#cacccc;stop-opacity:1;"
         offset="0"
         id="stop3906-8-5-3" />
      <stop
         style="stop-color:#666666;stop-opacity:1;"
         offset="1"
         id="stop3908-5-86-5" />
    </linearGradient>
    <linearGradient
       inkscape:collect="always"
       xlink:href="#linearGradient4097-0-9"
       id="linearGradient3424"
       gradientUnits="userSpaceOnUse"
       x1="311.11218"
       y1="298.11319"
       x2="311.63062"
       y2="397.13428" />
    <linearGradient
       inkscape:collect="always"
       xlink:href="#linearGradient3904-1-0-0"
       id="linearGradient3426"
       gradientUnits="userSpaceOnUse"
       x1="311.51395"
       y1="300.05264"
       x2="312.18066"
       y2="397.63632" />
    <linearGradient
       inkscape:collect="always"
       xlink:href="#linearGradient4097-0-9"
       id="linearGradient3458"
       gradientUnits="userSpaceOnUse"
       x1="311.11218"
       y1="298.11319"
       x2="311.63062"
       y2="397.13428" />
    <linearGradient
       inkscape:collect="always"
       xlink:href="#linearGradient3904-1-0-0"
       id="linearGradient3460"
       gradientUnits="userSpaceOnUse"
       x1="311.51395"
       y1="300.05264"
       x2="312.18066"
       y2="397.63632" />
    <linearGradient
       inkscape:collect="always"
       xlink:href="#linearGradient3240"
       id="linearGradient3246"
       x1="-142.32776"
       y1="731.42706"
       x2="15.349072"
       y2="914.68567"
       gradientUnits="userSpaceOnUse" />
    <linearGradient
       inkscape:collect="always"
       xlink:href="#linearGradient3240-0"
       id="linearGradient3246-4"
       x1="-142.32776"
       y1="731.42706"
       x2="15.349072"
       y2="914.68567"
       gradientUnits="userSpaceOnUse" />
    <linearGradient
       id="linearGradient3240-0">
      <stop
         style="stop-color:#cccccc;stop-opacity:1;"
         offset="0"
         id="stop3242-9" />
      <stop
         style="stop-color:#000000;stop-opacity:1;"
         offset="1"
         id="stop3244-4" />
    </linearGradient>
    <linearGradient
       inkscape:collect="always"
       xlink:href="#linearGradient3240-7"
       id="linearGradient3246-1"
       x1="-142.32776"
       y1="731.42706"
       x2="15.349072"
       y2="914.68567"
       gradientUnits="userSpaceOnUse" />
    <linearGradient
       id="linearGradient3240-7">
      <stop
         style="stop-color:#cccccc;stop-opacity:1;"
         offset="0"
         id="stop3242-1" />
      <stop
         style="stop-color:#000000;stop-opacity:1;"
         offset="1"
         id="stop3244-1" />
    </linearGradient>
    <filter
       inkscape:collect="always"
       id="filter4111"
       color-interpolation-filters="sRGB">
      <feGaussianBlur
         inkscape:collect="always"
         stdDeviation="2.0326563"
         id="feGaussianBlur4113" />
    </filter>
    <linearGradient
       inkscape:collect="always"
       xlink:href="#linearGradient3240-1"
       id="linearGradient3246-6"
       x1="-142.32776"
       y1="731.42706"
       x2="15.349072"
       y2="914.68567"
       gradientUnits="userSpaceOnUse" />
    <linearGradient
       id="linearGradient3240-1">
      <stop
         style="stop-color:#cccccc;stop-opacity:1;"
         offset="0"
         id="stop3242-4" />
      <stop
         style="stop-color:#000000;stop-opacity:1;"
         offset="1"
         id="stop3244-2" />
    </linearGradient>
    <linearGradient
       y2="914.68567"
       x2="15.349072"
       y1="731.42706"
       x1="-142.32776"
       gradientUnits="userSpaceOnUse"
       id="linearGradient4140-5"
       xlink:href="#linearGradient3240-1-7"
       inkscape:collect="always" />
    <linearGradient
       id="linearGradient3240-1-7">
      <stop
         style="stop-color:#cccccc;stop-opacity:1;"
         offset="0"
         id="stop3242-4-6" />
      <stop
         style="stop-color:#000000;stop-opacity:1;"
         offset="1"
         id="stop3244-2-1" />
    </linearGradient>
    <linearGradient
       y2="914.68567"
       x2="15.349072"
       y1="731.42706"
       x1="-142.32776"
       gradientUnits="userSpaceOnUse"
       id="linearGradient4189-4"
       xlink:href="#linearGradient3240-1-7-3"
       inkscape:collect="always" />
    <linearGradient
       id="linearGradient3240-1-7-3">
      <stop
         style="stop-color:#cccccc;stop-opacity:1;"
         offset="0"
         id="stop3242-4-6-1" />
      <stop
         style="stop-color:#000000;stop-opacity:1;"
         offset="1"
         id="stop3244-2-1-2" />
    </linearGradient>
    <filter
       color-interpolation-filters="sRGB"
       inkscape:collect="always"
       id="filter4111-1">
      <feGaussianBlur
         inkscape:collect="always"
         stdDeviation="2.0326563"
         id="feGaussianBlur4113-3" />
    </filter>
    <linearGradient
       inkscape:collect="always"
       xlink:href="#linearGradient3240-74"
       id="linearGradient3246-8"
       x1="-142.32776"
       y1="731.42706"
       x2="15.349072"
       y2="914.68567"
       gradientUnits="userSpaceOnUse" />
    <linearGradient
       id="linearGradient3240-74">
      <stop
         style="stop-color:#ffffff;stop-opacity:1;"
         offset="0"
         id="stop3242-2" />
      <stop
         style="stop-color:#9c9c9c;stop-opacity:1;"
         offset="1"
         id="stop3244-7" />
    </linearGradient>
    <linearGradient
       inkscape:collect="always"
       xlink:href="#linearGradient3240-74-6"
       id="linearGradient4317-8"
       gradientUnits="userSpaceOnUse"
       x1="-142.32776"
       y1="731.42706"
       x2="15.349072"
       y2="914.68567"
       gradientTransform="translate(-234.42408,276.7617)" />
    <linearGradient
       id="linearGradient3240-74-6">
      <stop
         style="stop-color:#ffffff;stop-opacity:1;"
         offset="0"
         id="stop3242-2-5" />
      <stop
         style="stop-color:#9c9c9c;stop-opacity:1;"
         offset="1"
         id="stop3244-7-0" />
    </linearGradient>
    <linearGradient
       y2="914.68567"
       x2="15.349072"
       y1="731.42706"
       x1="-142.32776"
       gradientTransform="matrix(0.14149258,0,0,0.14149258,495.15546,60.473344)"
       gradientUnits="userSpaceOnUse"
       id="linearGradient4355-8"
       xlink:href="#linearGradient3240-74-6-6"
       inkscape:collect="always" />
    <linearGradient
       id="linearGradient3240-74-6-6">
      <stop
         style="stop-color:#ffffff;stop-opacity:1;"
         offset="0"
         id="stop3242-2-5-0" />
      <stop
         style="stop-color:#9c9c9c;stop-opacity:1;"
         offset="1"
         id="stop3244-7-0-2" />
    </linearGradient>
    <linearGradient
       inkscape:collect="always"
       xlink:href="#linearGradient3240-74-0"
       id="linearGradient4317-5"
       gradientUnits="userSpaceOnUse"
       x1="-142.32776"
       y1="731.42706"
       x2="15.349072"
       y2="914.68567"
       gradientTransform="translate(-234.42408,276.7617)" />
    <linearGradient
       id="linearGradient3240-74-0">
      <stop
         style="stop-color:#ffffff;stop-opacity:1;"
         offset="0"
         id="stop3242-2-9" />
      <stop
         style="stop-color:#9c9c9c;stop-opacity:1;"
         offset="1"
         id="stop3244-7-00" />
    </linearGradient>
    <linearGradient
       y2="914.68567"
       x2="15.349072"
       y1="731.42706"
       x1="-142.32776"
       gradientTransform="translate(-234.42408,276.7617)"
       gradientUnits="userSpaceOnUse"
       id="linearGradient4433-6-4"
       xlink:href="#linearGradient3240-74-0-6"
       inkscape:collect="always" />
    <linearGradient
       id="linearGradient3240-74-0-6">
      <stop
         style="stop-color:#ffffff;stop-opacity:1;"
         offset="0"
         id="stop3242-2-9-0" />
      <stop
         style="stop-color:#9c9c9c;stop-opacity:1;"
         offset="1"
         id="stop3244-7-00-6" />
    </linearGradient>
    <linearGradient
       y2="914.68567"
       x2="15.349072"
       y1="731.42706"
       x1="-142.32776"
       gradientTransform="translate(-234.42408,276.7617)"
       gradientUnits="userSpaceOnUse"
       id="linearGradient4482-3"
       xlink:href="#linearGradient3240-74-0-6-7"
       inkscape:collect="always" />
    <linearGradient
       id="linearGradient3240-74-0-6-7">
      <stop
         style="stop-color:#ffffff;stop-opacity:1;"
         offset="0"
         id="stop3242-2-9-0-8" />
      <stop
         style="stop-color:#9c9c9c;stop-opacity:1;"
         offset="1"
         id="stop3244-7-00-6-8" />
    </linearGradient>
    <linearGradient
       y2="914.68567"
       x2="15.349072"
       y1="731.42706"
       x1="-142.32776"
       gradientTransform="translate(-234.42408,276.7617)"
       gradientUnits="userSpaceOnUse"
       id="linearGradient4531-8"
       xlink:href="#linearGradient3240-74-0-6-7-4"
       inkscape:collect="always" />
    <linearGradient
       id="linearGradient3240-74-0-6-7-4">
      <stop
         style="stop-color:#ffffff;stop-opacity:1;"
         offset="0"
         id="stop3242-2-9-0-8-0" />
      <stop
         style="stop-color:#9c9c9c;stop-opacity:1;"
         offset="1"
         id="stop3244-7-00-6-8-7" />
    </linearGradient>
    <linearGradient
       inkscape:collect="always"
       xlink:href="#linearGradient3240-74-09"
       id="linearGradient4317-2"
       gradientUnits="userSpaceOnUse"
       x1="-142.32776"
       y1="731.42706"
       x2="15.349072"
       y2="914.68567"
       gradientTransform="translate(-234.42408,276.7617)" />
    <linearGradient
       id="linearGradient3240-74-09">
      <stop
         style="stop-color:#ffffff;stop-opacity:1;"
         offset="0"
         id="stop3242-2-7" />
      <stop
         style="stop-color:#9c9c9c;stop-opacity:1;"
         offset="1"
         id="stop3244-7-3" />
    </linearGradient>
    <linearGradient
       id="linearGradient3240-74-7">
      <stop
         style="stop-color:#ffffff;stop-opacity:1;"
         offset="0"
         id="stop3242-2-54" />
      <stop
         style="stop-color:#9c9c9c;stop-opacity:1;"
         offset="1"
         id="stop3244-7-1" />
    </linearGradient>
    <linearGradient
       y2="914.68567"
       x2="15.349072"
       y1="731.42706"
       x1="-142.32776"
       gradientTransform="translate(186.9704,-713.27539)"
       gradientUnits="userSpaceOnUse"
       id="linearGradient4752"
       xlink:href="#linearGradient3240-74-7"
       inkscape:collect="always" />
    <linearGradient
       id="linearGradient3240-74-01">
      <stop
         style="stop-color:#ffffff;stop-opacity:1;"
         offset="0"
         id="stop3242-2-4" />
      <stop
         style="stop-color:#9c9c9c;stop-opacity:1;"
         offset="1"
         id="stop3244-7-6" />
    </linearGradient>
    <linearGradient
       y2="914.68567"
       x2="15.349072"
       y1="731.42706"
       x1="-142.32776"
       gradientTransform="translate(186.9704,-713.27539)"
       gradientUnits="userSpaceOnUse"
       id="linearGradient4785"
       xlink:href="#linearGradient3240-74-01"
       inkscape:collect="always" />
    <linearGradient
       inkscape:collect="always"
       xlink:href="#linearGradient3240-74-1"
       id="linearGradient4805-7"
       x1="-166.83931"
       y1="1021.1811"
       x2="10.63407"
       y2="1199.0398"
       gradientUnits="userSpaceOnUse" />
    <linearGradient
       id="linearGradient3240-74-1">
      <stop
         style="stop-color:#ffffff;stop-opacity:1;"
         offset="0"
         id="stop3242-2-77" />
      <stop
         style="stop-color:#9c9c9c;stop-opacity:1;"
         offset="1"
         id="stop3244-7-7" />
    </linearGradient>
    <linearGradient
       inkscape:collect="always"
       xlink:href="#linearGradient3240-74-5"
       id="linearGradient4805-3"
       x1="-166.83931"
       y1="1021.1811"
       x2="10.63407"
       y2="1199.0398"
       gradientUnits="userSpaceOnUse" />
    <linearGradient
       id="linearGradient3240-74-5">
      <stop
         style="stop-color:#ffffff;stop-opacity:1;"
         offset="0"
         id="stop3242-2-99" />
      <stop
         style="stop-color:#9c9c9c;stop-opacity:1;"
         offset="1"
         id="stop3244-7-8" />
    </linearGradient>
    <filter
       color-interpolation-filters="sRGB"
       inkscape:collect="always"
       id="filter4111-1-82">
      <feGaussianBlur
         inkscape:collect="always"
         stdDeviation="2.0326563"
         id="feGaussianBlur4113-3-66" />
    </filter>
    <linearGradient
       inkscape:collect="always"
       xlink:href="#linearGradient3240-74-12"
       id="linearGradient4920-0"
       gradientUnits="userSpaceOnUse"
       x1="-166.83931"
       y1="1021.1811"
       x2="10.63407"
       y2="1199.0398" />
    <linearGradient
       id="linearGradient3240-74-12">
      <stop
         style="stop-color:#ffffff;stop-opacity:1;"
         offset="0"
         id="stop3242-2-50" />
      <stop
         style="stop-color:#9c9c9c;stop-opacity:1;"
         offset="1"
         id="stop3244-7-9" />
    </linearGradient>
    <linearGradient
       y2="1199.0398"
       x2="10.63407"
       y1="1021.1811"
       x1="-166.83931"
       gradientUnits="userSpaceOnUse"
       id="linearGradient4942-2"
       xlink:href="#linearGradient3240-74-12-0"
       inkscape:collect="always" />
    <linearGradient
       id="linearGradient3240-74-12-0">
      <stop
         style="stop-color:#ffffff;stop-opacity:1;"
         offset="0"
         id="stop3242-2-50-1" />
      <stop
         style="stop-color:#9c9c9c;stop-opacity:1;"
         offset="1"
         id="stop3244-7-9-6" />
    </linearGradient>
    <linearGradient
       inkscape:collect="always"
       xlink:href="#linearGradient3240-74"
       id="linearGradient3383"
       gradientUnits="userSpaceOnUse"
       gradientTransform="translate(-234.42408,276.7617)"
       x1="-142.32776"
       y1="731.42706"
       x2="15.349072"
       y2="914.68567" />
    <linearGradient
       inkscape:collect="always"
       xlink:href="#linearGradient3240-74"
       id="linearGradient3385"
       gradientUnits="userSpaceOnUse"
       x1="-166.83931"
       y1="1021.1811"
       x2="10.63407"
       y2="1199.0398" />
    <linearGradient
       inkscape:collect="always"
       xlink:href="#linearGradient3240-74"
       id="linearGradient3399"
       gradientUnits="userSpaceOnUse"
       gradientTransform="translate(-234.42408,276.7617)"
       x1="-142.32776"
       y1="731.42706"
       x2="15.349072"
       y2="914.68567" />
  </defs>
  <sodipodi:namedview
     id="base"
     pagecolor="#ffffff"
     bordercolor="#666666"
     borderopacity="1.0"
     inkscape:pageopacity="0.0"
     inkscape:pageshadow="2"
     inkscape:zoom="0.47660378"
     inkscape:cx="396.36338"
     inkscape:cy="550.52423"
     inkscape:document-units="px"
     inkscape:current-layer="layer1"
     showgrid="false"
     inkscape:window-width="1440"
     inkscape:window-height="838"
     inkscape:window-x="1272"
     inkscape:window-y="-8"
     inkscape:window-maximized="1" />
  <metadata
     id="metadata7">
    <rdf:RDF>
      <cc:Work
         rdf:about="">
        <dc:format>image/svg+xml</dc:format>
        <dc:type
           rdf:resource="http://purl.org/dc/dcmitype/StillImage" />
        <dc:title />
      </cc:Work>
    </rdf:RDF>
  </metadata>
  <g
     inkscape:label="Layer 1"
     inkscape:groupmode="layer"
     id="layer1"
     transform="translate(0,-62.362183)">
    <g
       id="g3328"
       transform="translate(-87.790184,-333.61045)">
      <rect
         y="469.42337"
         x="172.37134"
         height="128"
         width="128"
         id="rect4431"
         style="color:#000000;fill:none;stroke:none;stroke-width:0.98142517;marker:none;visibility:visible;display:inline;overflow:visible;enable-background:accumulate" />
      <g
         transform="translate(-61.984224,85.804606)"
         id="g4424">
        <path
           sodipodi:type="arc"
           style="color:#000000;fill:#333333;fill-opacity:1;fill-rule:nonzero;stroke:none;stroke-width:1;marker:none;visibility:visible;display:inline;overflow:visible;filter:url(#filter4093);enable-background:accumulate"
           id="path3902-4"
           sodipodi:cx="312.50507"
           sodipodi:cy="348.00122"
           sodipodi:rx="49.635078"
           sodipodi:ry="49.635078"
           d="m 362.14014,348.00122 c 0,27.4127 -22.22238,49.63508 -49.63507,49.63508 -27.4127,0 -49.63508,-22.22238 -49.63508,-49.63508 0,-27.4127 22.22238,-49.63508 49.63508,-49.63508 27.41269,0 49.63507,22.22238 49.63507,49.63508 z"
           transform="matrix(1.0065789,0,0,1.0065789,-10.163121,104.64048)" />
        <path
           sodipodi:type="arc"
           style="color:#000000;fill:url(#linearGradient4446);fill-opacity:1;fill-rule:nonzero;stroke:none;stroke-width:1;marker:none;visibility:visible;display:inline;overflow:visible;enable-background:accumulate"
           id="path3902"
           sodipodi:cx="312.50507"
           sodipodi:cy="348.00122"
           sodipodi:rx="49.635078"
           sodipodi:ry="49.635078"
           d="m 362.14014,348.00122 c 0,27.4127 -22.22238,49.63508 -49.63507,49.63508 -27.4127,0 -49.63508,-22.22238 -49.63508,-49.63508 0,-27.4127 22.22238,-49.63508 49.63508,-49.63508 27.41269,0 49.63507,22.22238 49.63507,49.63508 z"
           transform="matrix(1.0065789,0,0,1.0065789,-16.75055,96.327585)" />
        <path
           sodipodi:type="arc"
           style="color:#000000;fill:url(#linearGradient4448);fill-opacity:1;fill-rule:nonzero;stroke:none;stroke-width:1.05155265;marker:none;visibility:visible;display:inline;overflow:visible;enable-background:accumulate"
           id="path3902-0"
           sodipodi:cx="312.50507"
           sodipodi:cy="348.00122"
           sodipodi:rx="49.635078"
           sodipodi:ry="49.635078"
           d="m 362.14014,348.00122 c 0,27.4127 -22.22238,49.63508 -49.63507,49.63508 -27.4127,0 -49.63508,-22.22238 -49.63508,-49.63508 0,-27.4127 22.22238,-49.63508 49.63508,-49.63508 27.41269,0 49.63507,22.22238 49.63507,49.63508 z"
           transform="matrix(0.95394732,0,0,0.96052627,-0.30291757,112.35396)" />
        <path
           style="fill:#f2f2f2;stroke:#666666;stroke-width:1.5;stroke-linecap:butt;stroke-linejoin:miter;stroke-miterlimit:4;stroke-opacity:1;stroke-dasharray:none"
           d="m 285.98669,473.26575 38.838,-24.42814 c 1.06764,-2.16998 1.06001,-3.36072 -0.95288,-5.18756 l -37.12282,-23.34934 c -2.74773,-0.42412 -4.50813,-1.26308 -4.52731,3.71091 -0.0586,15.62107 0.18798,31.24211 0.0862,46.86306 0.87703,1.98723 0.58389,2.42573 3.67881,2.39107 z"
           id="path3912"
           inkscape:connector-curvature="0"
           sodipodi:nodetypes="ccccccc" />
        <path
           style="color:#000000;fill:#ececec;fill-opacity:1;fill-rule:nonzero;stroke:none;stroke-width:1.05155265;marker:none;visibility:visible;display:inline;overflow:visible;enable-background:accumulate"
           d="m 296.91969,398.57325 c -26.15027,0 -47.34375,21.32563 -47.34375,47.65625 0,1.7311 0.10261,3.44165 0.28125,5.125 0.0509,-28.01618 22.60129,-50.71875 50.4375,-50.71875 7.15103,0 13.96141,1.51768 20.125,4.21875 -6.92239,-3.99004 -14.95205,-6.28125 -23.5,-6.28125 z"
           id="path3902-0-8"
           inkscape:connector-curvature="0" />
      </g>
    </g>
    <g
       id="g4682"
       transform="translate(64.146785,-553.91924)">
      <rect
         y="689.31165"
         x="240.42406"
         height="128"
         width="128"
         id="rect4431-4-8"
         style="color:#000000;fill:none;stroke:none;stroke-width:0.98142517;marker:none;visibility:visible;display:inline;overflow:visible;enable-background:accumulate" />
      <path
         transform="matrix(1.0065789,0,0,1.0065789,-4.094621,410.33339)"
         d="m 362.14014,348.00122 c 0,27.4127 -22.22238,49.63508 -49.63507,49.63508 -27.4127,0 -49.63508,-22.22238 -49.63508,-49.63508 0,-27.4127 22.22238,-49.63508 49.63508,-49.63508 27.41269,0 49.63507,22.22238 49.63507,49.63508 z"
         sodipodi:ry="49.635078"
         sodipodi:rx="49.635078"
         sodipodi:cy="348.00122"
         sodipodi:cx="312.50507"
         id="path3902-4-6-7"
         style="color:#000000;fill:#333333;fill-opacity:1;fill-rule:nonzero;stroke:none;stroke-width:1;marker:none;visibility:visible;display:inline;overflow:visible;filter:url(#filter4093-9-0);enable-background:accumulate"
         sodipodi:type="arc" />
      <path
         transform="matrix(1.0065789,0,0,1.0065789,-10.68205,402.0205)"
         d="m 362.14014,348.00122 c 0,27.4127 -22.22238,49.63508 -49.63507,49.63508 -27.4127,0 -49.63508,-22.22238 -49.63508,-49.63508 0,-27.4127 22.22238,-49.63508 49.63508,-49.63508 27.41269,0 49.63507,22.22238 49.63507,49.63508 z"
         sodipodi:ry="49.635078"
         sodipodi:rx="49.635078"
         sodipodi:cy="348.00122"
         sodipodi:cx="312.50507"
         id="path3902-2-5"
         style="color:#000000;fill:url(#linearGradient3458);fill-opacity:1;fill-rule:nonzero;stroke:none;stroke-width:1;marker:none;visibility:visible;display:inline;overflow:visible;enable-background:accumulate"
         sodipodi:type="arc" />
      <path
         transform="matrix(0.95394732,0,0,0.96052627,5.765582,418.04687)"
         d="m 362.14014,348.00122 c 0,27.4127 -22.22238,49.63508 -49.63507,49.63508 -27.4127,0 -49.63508,-22.22238 -49.63508,-49.63508 0,-27.4127 22.22238,-49.63508 49.63508,-49.63508 27.41269,0 49.63507,22.22238 49.63507,49.63508 z"
         sodipodi:ry="49.635078"
         sodipodi:rx="49.635078"
         sodipodi:cy="348.00122"
         sodipodi:cx="312.50507"
         id="path3902-0-43-4"
         style="color:#000000;fill:url(#linearGradient3460);fill-opacity:1;fill-rule:nonzero;stroke:none;stroke-width:1.05155265;marker:none;visibility:visible;display:inline;overflow:visible;enable-background:accumulate"
         sodipodi:type="arc" />
      <path
         inkscape:connector-curvature="0"
         id="path3902-0-8-0-3"
         d="m 302.98819,704.26616 c -26.15027,0 -47.34375,21.32563 -47.34375,47.65625 0,1.7311 0.10261,3.44165 0.28125,5.125 0.0509,-28.01618 22.60129,-50.71875 50.4375,-50.71875 7.15103,0 13.96141,1.51768 20.125,4.21875 -6.92239,-3.99004 -14.95205,-6.28125 -23.5,-6.28125 z"
         style="color:#000000;fill:#ececec;fill-opacity:1;fill-rule:nonzero;stroke:none;stroke-width:1.05155265;marker:none;visibility:visible;display:inline;overflow:visible;enable-background:accumulate" />
      <path
         inkscape:connector-curvature="0"
         id="rect3394"
         d="m 291.86333,728.9996 c -3.88341,0 -7,3.03146 -7,6.797 l 0,33.02917 c 0,3.76554 3.11659,6.797 7,6.797 3.88341,0 7.03125,-3.03146 7.03125,-6.797 l 0,-33.02917 c 0,-3.76554 -3.14784,-6.797 -7.03125,-6.797 z m 23.99999,0 c -3.8834,0 -6.99999,3.03146 -6.99999,6.797 l 0,33.02917 c 0,3.76554 3.11659,6.797 6.99999,6.797 3.88341,0 7.03125,-3.03146 7.03125,-6.797 l 0,-33.02917 c 0,-3.76554 -3.14784,-6.797 -7.03125,-6.797 z"
         style="color:#000000;fill:#f2f2f2;fill-opacity:1;fill-rule:nonzero;stroke:#666666;stroke-width:1.38262653;stroke-linecap:butt;stroke-linejoin:miter;stroke-miterlimit:4;stroke-opacity:1;stroke-dasharray:none;stroke-dashoffset:0;marker:none;visibility:visible;display:inline;overflow:visible;enable-background:accumulate" />
    </g>
    <g
       id="g4115"
       transform="matrix(0.60091992,0,0,0.60091992,197.46322,101.55394)">
      <path
         inkscape:connector-curvature="0"
         id="path3194-5"
         d="m -81.34541,719.27539 c -56.12839,0 -101.62499,45.52785 -101.62499,101.65625 0,56.1284 45.4966,101.625 101.625,101.625 56.12839,0 101.625,-45.4966 101.625,-101.625 0,-56.1284 -45.49661,-101.65625 -101.625,-101.65625 z m 0,10.71875 c 50.22015,0 90.93751,40.71735 90.93751,90.9375 0,50.22015 -40.71736,90.90625 -90.93751,90.90625 -50.22014,0 -90.93749,-40.6861 -90.93749,-90.90625 0,-50.22015 40.71735,-90.9375 90.9375,-90.9375 z m -36.96874,27.4375 0,124.1875 106.96874,-61.40625 -106.96874,-62.78125 z"
         style="color:#000000;fill:#333333;fill-opacity:1;fill-rule:nonzero;stroke:none;stroke-width:1;marker:none;visibility:visible;display:inline;overflow:visible;filter:url(#filter4111);enable-background:accumulate" />
      <path
         inkscape:connector-curvature="0"
         id="path3194-8"
         d="m -83.950041,715.13587 c -56.128399,0 -101.624999,45.52785 -101.624999,101.65625 0,56.1284 45.4966,101.625 101.625009,101.625 56.12839,0 101.625,-45.4966 101.625,-101.625 0,-56.1284 -45.49661,-101.65625 -101.625,-101.65625 z m 0,10.71875 c 50.22015,0 90.9375112,40.71735 90.9375112,90.9375 0,50.22015 -40.7173612,90.90625 -90.9375112,90.90625 -50.220149,0 -90.937499,-40.6861 -90.937499,-90.90625 0,-50.22015 40.71735,-90.9375 90.937509,-90.9375 z m -36.968749,27.4375 0,124.1875 106.968749,-61.40625 -106.968749,-62.78125 z"
         style="color:#000000;fill:#1a1a1a;fill-opacity:1;fill-rule:nonzero;stroke:none;stroke-width:1;marker:none;visibility:visible;display:inline;overflow:visible;enable-background:accumulate" />
      <path
         inkscape:connector-curvature="0"
         id="path3194"
         d="m -85.345405,713.27539 c -56.128395,0 -101.624995,45.52785 -101.624995,101.65625 0,56.1284 45.4966,101.625 101.624995,101.625 56.1284,0 101.625,-45.4966 101.625,-101.625 0,-56.1284 -45.4966,-101.65625 -101.625,-101.65625 z m 0,10.71875 c 50.22015,0 90.9375005,40.71735 90.9375005,90.9375 0,50.22015 -40.7173505,90.90625 -90.9375005,90.90625 -50.220145,0 -90.937495,-40.6861 -90.937495,-90.90625 0,-50.22015 40.71735,-90.9375 90.937495,-90.9375 z m -36.968745,27.4375 0,124.1875 106.968745,-61.40625 -106.968745,-62.78125 z"
         style="color:#000000;fill:url(#linearGradient3246);fill-opacity:1;fill-rule:nonzero;stroke:none;stroke-width:1;marker:none;visibility:visible;display:inline;overflow:visible;enable-background:accumulate" />
    </g>
    <g
       id="g3401"
       inkscape:export-filename="/home/jrbastien/Ubuntu One/CoverArt/Issue_084/button_playpause2.png"
       inkscape:export-xdpi="90"
       inkscape:export-ydpi="90"
       transform="translate(461.38209,-65.043546)">
      <rect
         y="420.9552"
         x="-156.81125"
         height="128"
         width="128"
         id="rect3337"
         style="color:#000000;fill:none;stroke:none;stroke-width:2.40846729;marker:none;visibility:visible;display:inline;overflow:visible;enable-background:accumulate" />
      <g
         inkscape:export-ydpi="90"
         inkscape:export-xdpi="90"
         inkscape:export-filename="/home/jrbastien/Ubuntu One/CoverArt/Issue_084/button_playpause2.png"
         transform="matrix(0.48576294,0,0,0.48576294,-49.615178,-50.050745)"
         id="g4915">
        <path
           id="rect4702-1"
           style="color:#000000;fill:#333333;fill-opacity:1;fill-rule:nonzero;stroke:none;stroke-width:1;marker:none;visibility:visible;display:inline;overflow:visible;filter:url(#filter4111-1-82);enable-background:accumulate"
           d="m -130.11168,1046.7927 c -2.216,0 -4,1.784 -4,4 l 0,102.2812 c 0,2.216 1.784,4 4,4 l 28.375,0 c 2.216,0 4,-1.784 4,-4 l 0,-102.2812 c 0,-2.216 -1.784,-4 -4,-4 l -28.375,0 z m 54,0 c -2.216,0 -4,1.784 -4,4 l 0,102.2812 c 0,2.216 1.784,4 4,4 l 28.375,0 c 2.216,0 4,-1.784 4,-4 l 0,-102.2812 c 0,-2.216 -1.784,-4 -4,-4 l -28.375,0 z m -12.8125,-35.7813 c 50.22014,0 90.9375,40.7174 90.9375,90.9376 0,50.2201 -40.71736,90.9062 -90.9375,90.9062 -50.22015,0 -90.9375,-40.6861 -90.9375,-90.9062 0,-50.2202 40.71735,-90.9376 90.9375,-90.9376 z m 0,-10.7188 c -56.1284,0 -101.625,45.5279 -101.625,101.6564 0,56.1284 45.4966,101.625 101.625,101.625 56.1284,0 101.625,-45.4966 101.625,-101.625 0,-56.1285 -45.4966,-101.6564 -101.625,-101.6564 z"
           inkscape:connector-curvature="0" />
        <path
           id="rect4702-7"
           style="color:#000000;fill:#1a1a1a;fill-opacity:1;fill-rule:nonzero;stroke:none;stroke-width:1;marker:none;visibility:visible;display:inline;overflow:visible;enable-background:accumulate"
           d="m -132.11168,1042.7927 c -2.216,0 -4,1.784 -4,4 l 0,102.2812 c 0,2.216 1.784,4 4,4 l 28.375,0 c 2.216,0 4,-1.784 4,-4 l 0,-102.2812 c 0,-2.216 -1.784,-4 -4,-4 l -28.375,0 z m 54,0 c -2.216,0 -4,1.784 -4,4 l 0,102.2812 c 0,2.216 1.784,4 4,4 l 28.375,0 c 2.216,0 4,-1.784 4,-4 l 0,-102.2812 c 0,-2.216 -1.784,-4 -4,-4 l -28.375,0 z m -12.8125,-35.7813 c 50.22014,0 90.9375,40.7174 90.9375,90.9376 0,50.2201 -40.71736,90.9062 -90.9375,90.9062 -50.22015,0 -90.9375,-40.6861 -90.9375,-90.9062 0,-50.2202 40.71735,-90.9376 90.9375,-90.9376 z m 0,-10.71877 c -56.1284,0 -101.625,45.52787 -101.625,101.65637 0,56.1284 45.4966,101.625 101.625,101.625 56.1284,0 101.625,-45.4966 101.625,-101.625 0,-56.1285 -45.4966,-101.65637 -101.625,-101.65637 z"
           inkscape:connector-curvature="0" />
        <path
           id="rect4702"
           style="color:#000000;fill:url(#linearGradient3385);fill-opacity:1;fill-rule:nonzero;stroke:none;stroke-width:1;marker:none;visibility:visible;display:inline;overflow:visible;enable-background:accumulate"
           d="m -134.11168,1040.7927 c -2.216,0 -4,1.784 -4,4 l 0,102.2812 c 0,2.216 1.784,4 4,4 l 28.375,0 c 2.216,0 4,-1.784 4,-4 l 0,-102.2812 c 0,-2.216 -1.784,-4 -4,-4 l -28.375,0 z m 54.000003,0 c -2.216,0 -4,1.784 -4,4 l 0,102.2812 c 0,2.216 1.784,4 4,4 l 28.375,0 c 2.216,0 4,-1.784 4,-4 l 0,-102.2812 c 0,-2.216 -1.784,-4 -4,-4 l -28.375,0 z m -12.8125,-35.7813 c 50.22014,0 90.9375004,40.7174 90.9375004,90.9376 0,50.2201 -40.7173604,90.9062 -90.9375004,90.9062 -50.220153,0 -90.937503,-40.6861 -90.937503,-90.9062 0,-50.2202 40.71735,-90.9376 90.937503,-90.9376 z m 0,-10.71877 c -56.128403,0 -101.625003,45.52787 -101.625003,101.65637 0,56.1284 45.4966,101.625 101.625003,101.625 56.1284,0 101.6250004,-45.4966 101.6250004,-101.625 0,-56.1285 -45.4966004,-101.65637 -101.6250004,-101.65637 z"
           inkscape:connector-curvature="0" />
      </g>
    </g>
    <g
       id="g3392"
       transform="translate(74.399326,-66.443204)"
       inkscape:export-filename="/home/jrbastien/Ubuntu One/CoverArt/Issue_084/button_play2.png"
       inkscape:export-xdpi="90"
       inkscape:export-ydpi="90">
      <rect
         y="422.35486"
         x="10.181828"
         height="128"
         width="128"
         id="rect3337-4"
         style="color:#000000;fill:none;stroke:none;stroke-width:2.40846729;marker:none;visibility:visible;display:inline;overflow:visible;enable-background:accumulate" />
      <g
         transform="matrix(0.48576395,0,0,0.48576395,227.57126,-46.584996)"
         id="g3378">
        <path
           style="color:#000000;fill:#333333;fill-opacity:1;fill-rule:nonzero;stroke:none;stroke-width:1;marker:none;visibility:visible;display:inline;overflow:visible;filter:url(#filter4111-1);enable-background:accumulate"
           d="m -315.76949,996.03709 c -56.12839,0 -101.62499,45.52791 -101.62499,101.65631 0,56.1284 45.4966,101.625 101.625,101.625 56.12839,0 101.625,-45.4966 101.625,-101.625 0,-56.1284 -45.49661,-101.65631 -101.625,-101.65631 z m 0,10.71871 c 50.22015,0 90.93751,40.7174 90.93751,90.9376 0,50.2201 -40.71736,90.9062 -90.93751,90.9062 -50.22014,0 -90.93749,-40.6861 -90.93749,-90.9062 0,-50.2202 40.71735,-90.9376 90.9375,-90.9376 z m -36.96874,27.4375 0,124.1876 106.96874,-61.4063 -106.96874,-62.7813 z"
           id="path3194-5-9"
           inkscape:connector-curvature="0" />
        <path
           style="color:#000000;fill:#1a1a1a;fill-opacity:1;fill-rule:nonzero;stroke:none;stroke-width:1;marker:none;visibility:visible;display:inline;overflow:visible;enable-background:accumulate"
           d="m -318.37412,991.89757 c -56.1284,0 -101.625,45.52783 -101.625,101.65623 0,56.1284 45.4966,101.625 101.62501,101.625 56.12839,0 101.625,-45.4966 101.625,-101.625 0,-56.1284 -45.49661,-101.65623 -101.625,-101.65623 z m 0,10.71873 c 50.22015,0 90.93751,40.7174 90.93751,90.9375 0,50.2202 -40.71736,90.9063 -90.93751,90.9063 -50.22015,0 -90.9375,-40.6861 -90.9375,-90.9063 0,-50.2201 40.71735,-90.9375 90.93751,-90.9375 z m -36.96875,27.4375 0,124.1875 106.96875,-61.4062 -106.96875,-62.7813 z"
           id="path3194-8-3"
           inkscape:connector-curvature="0" />
        <path
           style="color:#000000;fill:url(#linearGradient3399);fill-opacity:1;fill-rule:nonzero;stroke:none;stroke-width:1;marker:none;visibility:visible;display:inline;overflow:visible;enable-background:accumulate"
           d="m -319.76948,990.03709 c -56.1284,0 -101.625,45.52781 -101.625,101.65631 0,56.1284 45.4966,101.625 101.625,101.625 56.1284,0 101.625,-45.4966 101.625,-101.625 0,-56.1285 -45.4966,-101.65631 -101.625,-101.65631 z m 0,10.71871 c 50.22014,0 90.9375,40.7174 90.9375,90.9376 0,50.2201 -40.71736,90.9062 -90.9375,90.9062 -50.22015,0 -90.9375,-40.6861 -90.9375,-90.9062 0,-50.2202 40.71735,-90.9376 90.9375,-90.9376 z m -36.96875,27.4375 0,124.1876 106.96875,-61.4063 -106.96875,-62.7813 z"
           id="path3194-19"
           inkscape:connector-curvature="0" />
      </g>
    </g>
  </g>
</svg>
