<?xml version="1.0" encoding="UTF-8" standalone="no"?>
<!-- Created with Inkscape (http://www.inkscape.org/) -->

<svg
   xmlns:dc="http://purl.org/dc/elements/1.1/"
   xmlns:cc="http://creativecommons.org/ns#"
   xmlns:rdf="http://www.w3.org/1999/02/22-rdf-syntax-ns#"
   xmlns:svg="http://www.w3.org/2000/svg"
   xmlns="http://www.w3.org/2000/svg"
   xmlns:sodipodi="http://sodipodi.sourceforge.net/DTD/sodipodi-0.dtd"
   xmlns:inkscape="http://www.inkscape.org/namespaces/inkscape"
   id="svg3039"
   version="1.1"
   inkscape:version="0.48.4 r9939"
   width="128"
   height="128"
   sodipodi:docname="whats.svg">
  <sodipodi:namedview
     pagecolor="#ffffff"
     bordercolor="#666666"
     borderopacity="1"
     objecttolerance="10"
     gridtolerance="10"
     guidetolerance="10"
     inkscape:pageopacity="0"
     inkscape:pageshadow="2"
     inkscape:window-width="1313"
     inkscape:window-height="744"
     id="namedview3041"
     showgrid="false"
     inkscape:zoom="1.84375"
     inkscape:cx="-32"
     inkscape:cy="64"
     inkscape:window-x="53"
     inkscape:window-y="24"
     inkscape:window-maximized="1"
     inkscape:current-layer="svg3039" />
  <metadata
     id="metadata3045">
    <rdf:RDF>
      <cc:Work
         rdf:about="">
        <dc:format>image/svg+xml</dc:format>
        <dc:type
           rdf:resource="http://purl.org/dc/dcmitype/StillImage" />
        <dc:title></dc:title>
      </cc:Work>
    </rdf:RDF>
  </metadata>
  <defs
     id="defs3043" />
  <g
     id="g3049"
     transform="translate(4.8813519,1.6271184)"
     style="fill:#bebebe;fill-opacity:0.94117647"
     inkscape:export-filename="/home/foss/.local/share/rhythmbox/plugins/coverart_browser/img/whatsplaying.png"
     inkscape:export-xdpi="90"
     inkscape:export-ydpi="90">
    <path
       style="fill:#bebebe;fill-opacity:0.94117647"
       d="M 50.272152,116.56314 C 42.480607,114.67515 33.198405,109.73176 26.922702,104.12801 2.7576179,82.550318 1.663442,46.312248 24.487845,23.487845 43.341355,4.6343355 72.142541,1.7037477 94.265076,16.387849 L 100,20.194475 l 0,20.311922 0,20.311921 -4.382744,8.340841 c -2.603826,4.955365 -5.353984,8.826699 -6.7756,9.537855 -1.31607,0.658357 -4.320434,4.643532 -6.676364,8.855944 -3.963627,7.08698 -4.164268,7.790692 -2.68676,9.42332 1.32664,1.465921 1.391977,2.213818 0.386235,4.421182 -1.880016,4.12618 0.410172,5.63856 2.691156,1.77716 1.29374,-2.19013 2.459165,-2.96083 4.294816,-2.84019 2.165911,0.14235 3.130262,-0.935217 6.875334,-7.682482 3.211165,-5.785357 4.077308,-8.183933 3.295463,-9.125998 -0.781453,-0.941594 0.0078,-3.163372 2.998714,-8.441473 6.21473,-10.967241 6.32496,-11.43839 6.92118,-29.584477 l 0.55857,-17 2.86346,4.220645 c 10.31675,15.206544 11.32602,38.646919 2.39724,55.676328 -4.13915,7.894407 -15.464632,19.222147 -23.353768,23.358427 -11.186963,5.86533 -26.836161,7.78784 -39.13478,4.80774 z M 71.508577,81.135018 C 84.593525,75.190653 87.715392,58.653991 77.65002,48.603541 73.755268,44.714564 67.869222,41.9923 63.38398,42.005577 56.205692,42.026826 48.020469,47.545452 44.864982,54.491423 37.416769,70.886693 55.113307,88.583231 71.508577,81.135018 z M 55.966006,76.75 C 44.122786,70.772297 44.30646,54.320628 56.285242,48.156133 c 6.361667,-3.273828 12.297744,-2.431115 17.783095,2.52457 8.689579,7.850513 6.945455,21.229657 -3.42177,26.248345 C 65.152468,79.588696 61.501912,79.544173 55.966006,76.75 z M 67.428571,66.428571 c 2.037974,-2.037973 2.002161,-5.295136 -0.08356,-7.59983 C 63.851399,54.968341 58,57.593795 58,63.021738 c 0,4.560529 6.07852,6.756885 9.428571,3.406833 z M 36.764267,46.072313 C 39.702954,41.344956 48.140715,34.076541 50.75,34.024791 52.754986,33.985026 52.188554,31 50.176022,31 45.367435,31 32,44.367435 32,49.176022 c 0,3.070239 1.556772,2.05607 4.764267,-3.103709 z m -7.581316,-2.82333 c 3.321502,-5.879257 9.949343,-12.37795 15.572041,-15.268608 4.964151,-2.552095 5.972875,-3.763836 3.82073,-4.589691 -1.84735,-0.708895 -9.382272,3.530358 -14.450332,8.129958 -4.303743,3.905933 -10.580692,13.933648 -9.657221,15.427855 1.129661,1.82783 1.960326,1.176038 4.714782,-3.699514 z m -7.116018,-3.86597 C 26.322669,31.944762 34.456913,24.080102 41.421531,20.669862 46.791714,18.040341 47.960242,16 44.096019,16 41.375703,16 31.006027,23.12019 26.401687,28.14956 21.176672,33.8569 16.628654,41.589904 17.366362,43.51234 17.680339,44.330553 18.143328,45 18.395225,45 c 0.251896,0 1.904165,-2.527644 3.671708,-5.616987 z"
       id="path3063"
       inkscape:connector-curvature="0" />
    <path
       style="fill:#bebebe;fill-opacity:0.94117647"
       d="M 52.5,116.98341 C 31.672279,112.83109 14.522254,96.046237 9.5491569,74.947112 3.7849271,50.491489 16.026556,24.618614 38.74101,13.24967 56.784891,4.2184218 76.35513,5.2461967 93.588593,16.130113 L 100,20.179283 l 0,19.261135 c 0,12.177639 -0.432258,20.50111 -1.175376,22.632821 -1.762163,5.054944 -8.531616,16.45694 -9.627833,16.216451 -1.434896,-0.314789 -3.484825,2.423429 -7.8003,10.419348 -3.684566,6.826941 -3.794265,7.279617 -2.069694,8.540655 1.579779,1.155162 1.655877,1.694228 0.574274,4.068087 -0.911137,1.99973 -0.948947,3.03434 -0.140438,3.84285 0.80851,0.80851 1.604745,0.28689 2.957441,-1.93744 1.39938,-2.30109 2.237256,-2.82769 3.433759,-2.1581 2.038024,1.14054 3.465164,-0.51948 8.454527,-9.834133 2.985458,-5.573556 3.59215,-7.459439 2.601063,-8.085331 -0.986712,-0.623128 -0.326562,-2.521029 2.789778,-8.020482 C 106.23813,64.11169 106.34487,63.656298 106.94143,45.5 l 0.55857,-17 2.84247,4.376609 C 117.90893,44.526849 120.9133,61.93972 117.61031,75 112.35866,95.765454 97.028865,111.24753 76.539901,116.47838 70.24578,118.08528 59.191697,118.3175 52.5,116.98341 z M 71.508577,81.135018 C 79.663082,77.430506 84.910604,68.096069 83.565946,59.687039 82.716516,54.374993 80.754526,50.869667 76.578417,47.202995 68.087882,39.748207 55.918865,40.633692 48.347281,49.25725 39.359965,59.493238 42.215345,74.440168 54.3094,80.466891 c 6.023468,3.00162 11.586881,3.217739 17.199177,0.668127 z M 55.960023,76.697261 C 51.169075,74.163747 47,67.747554 47,62.907816 47,56.113675 52.745417,48.684184 59.381331,46.897318 74.790126,42.748161 86.221572,62.677027 74.769321,73.723773 68.790534,79.49086 62.979869,80.409445 55.960023,76.697261 z M 67.428571,66.428571 C 72.278952,61.578191 66.146772,54.710347 59.934259,58.035184 57.717041,59.221803 57.245891,64.845891 59.2,66.8 c 1.699024,1.699024 6.368913,1.48823 8.228571,-0.371429 z M 37.472077,45.476197 c 2.107658,-3.2948 5.306455,-6.623898 7.927095,-8.25 2.416458,-1.499409 5.227696,-3.24209 6.247194,-3.872626 1.394792,-0.862646 1.572656,-1.440669 0.718536,-2.335099 C 49.013715,27.509127 32,42.6749 32,49.171445 c 0,3.220752 1.84494,1.97488 5.472077,-3.695248 z M 29.022988,43.95494 c 3.02281,-5.925197 8.696248,-11.779388 14.698633,-15.166924 5.961639,-3.364541 7.055355,-4.552632 4.938713,-5.364864 -2.11687,-0.812319 -8.49234,2.7212 -14.250113,7.897933 -5.138219,4.619701 -11.00795,13.902753 -9.912026,15.675994 1.161626,1.87955 2.45889,1.007365 4.524793,-3.042139 z M 22.798051,38.703839 C 26.748568,31.703908 33.724042,24.958729 41.051023,21.053489 44.32296,19.309565 47,17.496606 47,17.024692 c 0,-3.863544 -10.335498,1.210744 -18.568205,9.116196 -6.498293,6.239981 -11.995173,14.948588 -11.027414,17.470529 0.831977,2.168098 2.000389,1.104987 5.39367,-4.907578 z"
       id="path3061"
       inkscape:connector-curvature="0" />
    <path
       style="fill:#bebebe;fill-opacity:0.94117647"
       d="M 50.644946,116.41601 C 41.721488,114.25586 31.287854,108.29401 24.392853,101.41539 2.8705859,79.944232 2.9282155,45.115263 24.521739,23.521739 43.645703,4.397775 72.436174,1.8605273 95.248067,17.288767 L 99.996134,20.5 99.998067,40.233624 100,59.967248 95.194738,69.230334 c -3.28966,6.341466 -5.359682,9.264123 -6.563069,9.266376 -1.181916,0.0022 -3.293337,2.854224 -6.444739,8.705266 -4.362245,8.099149 -4.564966,8.791896 -2.926341,10 1.527081,1.125867 1.599387,1.72401 0.545168,4.509854 -1.629358,4.3057 -0.156873,5.45179 2.589504,2.01552 1.444041,-1.80679 2.993933,-2.67767 4.449187,-2.5 1.880658,0.22961 2.976921,-1.12773 6.944375,-8.598163 3.301944,-6.217328 4.331392,-9.011125 3.441525,-9.339884 -0.881335,-0.325608 0.342045,-3.423569 4.000002,-10.129187 L 106.5,63.5 107,46.036333 c 0.4721,-16.489239 0.58971,-17.326201 2.10777,-15 15.17266,23.249848 12.54416,51.336048 -6.59562,70.475817 -13.822785,13.8228 -33.26037,19.40811 -51.867204,14.90386 z M 70.782119,81.446952 C 81.643949,76.909706 86.799002,64.64043 82.104137,54.5 78.66087,47.062896 71.015625,42 63.228463,42 57.630721,42 49.763891,46.290204 46.363056,51.19761 43.855539,54.815958 43.5,56.229239 43.5,62.578359 c 0,6.441648 0.334254,7.723928 3,11.508726 5.569626,7.907698 15.653702,10.964163 24.282119,7.359867 z M 58.5,77.936261 C 56.85,77.450412 54.212594,75.85151 52.639097,74.383146 37.734876,60.47474 57.383007,37.501032 73.404255,50.103347 83.203768,57.811645 79.907102,74.585088 67.91673,78.023882 63.968356,79.15626 62.600018,79.143528 58.5,77.936261 z m 9.464816,-11.87052 C 70.440743,61.439429 68.034491,57 63.051016,57 59.727146,57 57.75,59.051362 57.75,62.5 c 0,3.602185 2.01419,5.5 5.837261,5.5 2.281049,0 3.671079,-0.614196 4.377555,-1.934259 z M 36.003202,47.992271 c 1.700954,-4.106468 8.061002,-10.474216 12.955533,-12.971219 4.021316,-2.051522 4.916897,-3.361848 3.075561,-4.499856 -1.293265,-0.799282 -8.18084,2.790563 -12.31009,6.416092 -3.588175,3.150459 -9.102248,12.351337 -8.039214,13.414371 1.427626,1.427626 3.136276,0.494052 4.31821,-2.359388 z M 29.022988,43.95494 c 3.02281,-5.925197 8.696248,-11.779388 14.698633,-15.166924 5.995064,-3.383405 7.056603,-4.552153 4.889796,-5.383635 -2.329188,-0.893793 -11.158042,4.403515 -16.042705,9.625614 -4.765852,5.095081 -8.999939,12.463248 -8.047516,14.004301 1.138237,1.841705 2.448485,0.945457 4.501792,-3.079356 z M 22.30641,39.42539 c 4.058392,-6.992275 12.050818,-14.804145 18.858795,-18.432759 5.743323,-3.06116 6.809454,-4.272225 4.835121,-5.492429 -1.697013,-1.048812 -12.758217,5.52871 -18.039002,10.726854 -5.292296,5.209476 -10.936167,14.024866 -10.95194,17.106277 -0.01541,3.010566 2.252637,1.337288 5.297026,-3.907943 z"
       id="path3059"
       inkscape:connector-curvature="0" />
    <path
       style="fill:#bebebe;fill-opacity:0.94117647"
       d="M 53.5,116.98341 C 31.242137,112.54597 14.126558,95.478463 9.392701,73 4.4831178,49.687112 16.808731,24.429082 38.410295,13.536242 45.753212,9.8334911 56.553796,7.0347272 63.5,7.0347272 c 10.289902,0 26.27325,5.4945928 33.32199,11.4550948 l 3.32199,2.809116 L 99.82199,41.399469 99.5,61.5 94.757514,70.140141 c -3.054487,5.564845 -5.305808,8.590261 -6.325156,8.5 -1.030152,-0.09122 -3.21468,2.926216 -6.257514,8.643347 -4.49293,8.441693 -4.601311,8.83909 -2.785177,10.212369 1.741514,1.316856 1.767942,1.614655 0.33709,3.798413 -1.039083,1.58584 -1.242826,2.83855 -0.616028,3.78763 0.757651,1.14722 1.385379,0.87226 3.286258,-1.43948 1.732302,-2.10673 2.888552,-2.68657 4.400401,-2.20673 1.762816,0.5595 2.70322,-0.54622 6.699041,-7.876648 3.053324,-5.601397 4.436721,-9.194308 4.031599,-10.470732 -0.405998,-1.279189 1.021556,-4.958019 4.177612,-10.765763 L 106.5,63.5 107,46 l 0.5,-17.5 2.92146,4.88043 c 10.25511,17.131623 11.08711,36.380128 2.32887,53.87856 C 101.86506,109.0071 76.732962,121.61525 53.5,116.98341 z M 74.861054,79.59629 C 79.860386,76.13175 84,68.350534 84,62.417847 84,59.777808 82.970242,56.257202 81.215655,52.898537 75.630956,42.208199 61.567939,38.699222 51.821591,45.564185 45.611876,49.938076 42.752622,55.975097 43.21817,63.729426 43.680189,71.424994 47.329771,77.186738 54,80.75114 c 6.293144,3.362898 15.040727,2.878639 20.861054,-1.15485 z M 59,77.84339 C 54.275194,76.498023 49.185701,71.403356 47.938146,66.770291 45.130923,56.345063 52.586761,46.995083 63.70034,47.003738 c 9.122689,0.0071 15.289106,6.295455 15.295922,15.598379 C 79.004025,73.198474 69.126805,80.726952 59,77.84339 z M 67.75,66.722321 C 69.342572,65.49004 69.376095,59.776095 67.8,58.2 c -2.215411,-2.215411 -7.589934,-1.450235 -9.418798,1.340964 -3.794511,5.791157 3.72068,11.55169 9.368798,7.181357 z M 36.003202,47.992271 c 1.709338,-4.126708 8.068835,-10.478212 13.020965,-13.0046 4.309475,-2.19853 4.875081,-4.675026 0.964415,-4.222673 -5.671374,0.656016 -20.509209,15.965559 -18.548454,19.138126 1.236863,2.001288 3.30058,1.137077 4.563074,-1.910853 z m -6.894989,-4.204386 c 2.797953,-5.48444 11.357612,-13.79232 16.68581,-16.195002 4.367703,-1.96956 5.22322,-3.2653 2.775969,-4.204398 C 44.75636,21.925057 32.582461,31.300489 26.999886,40.000178 24.010664,44.658476 23.571413,48 25.948291,48 c 0.556084,0 1.978048,-1.895452 3.159922,-4.212115 z m -6.772525,-4.219774 c 3.473597,-6.64801 12.488999,-15.432105 19.468257,-18.968762 5.111756,-2.590323 6.171722,-3.87832 4.196381,-5.099147 C 44.259317,14.424199 32.755625,21.300748 27.476829,26.572972 21.834133,32.208644 17,39.755079 17,42.92807 c 0,3.717649 2.440673,2.180723 5.335688,-3.359959 z"
       id="path3057"
       inkscape:connector-curvature="0" />
    <path
       style="fill:#bebebe;fill-opacity:0.94117647"
       d="M 54.763386,116.96719 C 38.978348,114.30925 26.013813,105.62775 16.839636,91.57213 11.091311,82.765208 8.7904839,74.50052 8.746173,62.5 8.6865992,46.365914 13.973341,34.039858 25.766926,22.816061 37.012235,12.114051 48.020262,7.721352 63.5,7.7588641 75.759708,7.7885731 84.10638,10.18177 93.193305,16.272669 L 99.5,20.5 l 0,20.5 0,20.5 -4.415525,7.886905 c -2.428539,4.337798 -5.244234,8.103618 -6.257102,8.368489 C 86.988715,78.236214 78,93.01579 78,95.558159 c 0,0.738353 0.72795,1.749842 1.617666,2.247752 1.483102,0.829986 1.475932,1.121607 -0.0862,3.505719 -0.937124,1.43023 -1.413517,3.07021 -1.05865,3.64439 1.13794,1.84123 3.171651,1.11969 4.39175,-1.55813 0.948822,-2.08244 1.667581,-2.48114 3.598958,-1.9964 2.176457,0.54626 2.866647,-0.20034 7.031153,-7.605743 3.229573,-5.74289 4.445005,-8.899919 4.043019,-10.501559 -0.393574,-1.568123 0.629674,-4.418751 3.245724,-9.042144 C 102.88471,70.53842 105.01439,66.6 105.51607,65.5 106.01774,64.4 106.66935,55.625 106.9641,46 L 107.5,28.5 111.16387,35 c 9.52871,16.904721 9.97622,35.113728 1.29633,52.748162 C 102.25743,108.47655 77.823989,120.85022 54.763386,116.96719 z M 75.152653,79.453917 C 81.190697,75.201002 84.258078,68.976136 83.779223,61.947375 83.289167,54.754209 80.371721,49.241571 75.074799,45.5 71.289229,42.825997 70.031444,42.5 63.5,42.5 c -6.548956,0 -7.787642,0.323248 -11.655373,3.041591 -6.026302,4.235445 -8.807616,9.511975 -8.828177,16.748247 -0.0367,12.917293 8.641106,21.081995 21.712976,20.429123 4.980833,-0.248766 7.07001,-0.903195 10.423227,-3.265044 z M 54.951949,75.746602 C 41.755992,66.853847 47.659705,47 63.5,47 c 9.228055,0 15.49933,6.475785 15.494708,16 -0.0043,8.80696 -6.434461,14.989549 -15.596825,14.996262 -3.641972,0.0027 -6.059063,-0.641148 -8.445934,-2.24966 z m 11.825545,-8.303306 c 2.497807,-1.749532 3.104971,-7.492395 0.972506,-9.198462 -3.048886,-2.439246 -5.693918,-2.391825 -8.233351,0.147608 -3.157534,3.157534 -3.171898,5.043219 -0.0621,8.153013 2.860221,2.86022 4.273816,3.033536 7.322949,0.897841 z M 35.793585,48.553687 c 1.772962,-3.891229 8.158963,-10.441571 12.872772,-13.204046 4.546262,-2.664288 5.326941,-4.031246 2.845983,-4.983279 -4.710872,-1.807732 -22.469933,15.657169 -19.99419,19.663006 1.073759,1.737378 3.135739,1.025679 4.275435,-1.475681 z M 30.735219,41.565066 C 34.740797,35.282093 40.200569,30.387294 46.75,27.207482 50.38954,25.44045 51.085769,23 47.95034,23 41.16635,23 24,39.625521 24,46.195781 c 0,3.553692 2.701602,1.69624 6.735219,-4.630715 z M 21.981034,40.329678 C 25.685796,33.346133 32.95417,25.9507 40.382696,21.606336 44.022213,19.477867 47,17.33158 47,16.836811 47,14.695125 43.718738,15.025559 38.811259,17.661444 26.806747,24.109258 11.141283,45 18.310734,45 c 0.655985,0 2.30762,-2.101645 3.6703,-4.670322 z"
       id="path3055"
       inkscape:connector-curvature="0" />
    <path
       style="fill:#bebebe;fill-opacity:0.94117647"
       d="M 53.393382,116.56734 C 42.097681,114.45603 33.671512,109.87098 24.959941,101.09543 13.196555,89.245658 9.0596786,79.218763 9.0363149,62.5 9.0134879,46.165362 13.396672,35.56861 24.977818,23.959941 37.246257,11.662345 48.629887,7.3613051 66.587766,8.2385877 78.372303,8.8142887 85.272306,10.937013 93.377681,16.480264 L 99.255362,20.5 99.094817,41 C 98.938887,60.910708 98.860246,61.64373 96.359111,66.5 92.001932,74.960012 90.0513,77.753322 88.154221,78.249419 86.247422,78.748058 78,92.746491 78,95.484281 c 0,0.868169 0.663868,1.833239 1.475263,2.1446 1.295572,0.497158 1.290594,0.923221 -0.04087,3.497979 -0.833871,1.61253 -1.246182,3.36866 -0.916246,3.90251 1.057371,1.71086 3.105876,1.04166 4.439529,-1.45029 0.888228,-1.65967 2.070039,-2.36718 3.758376,-2.25 2.088726,0.14496 3.144979,-1.02222 6.955051,-7.685457 3.159291,-5.525125 4.320739,-8.539979 3.914106,-10.160132 -0.395266,-1.574868 0.563364,-4.30963 3.029901,-8.643623 5.95159,-10.457665 6.38301,-12.493234 6.40389,-30.215595 L 107.038,28.5 l 3.14182,5 c 6.56711,10.451135 9.53977,24.091583 7.86866,36.106422 -4.38727,31.543288 -33.604529,52.764648 -64.655098,46.960918 z M 73.092716,80.673227 C 79.660891,77.205637 83.32109,71.403689 83.78183,63.729426 84.247939,55.965747 81.38705,49.9373 75.152653,45.546083 69.523581,41.581228 60.262977,40.799996 54.417594,43.796858 42.195103,50.06319 38.738022,65.160621 47.180355,75.402634 c 6.364698,7.721483 17.124508,9.910036 25.912361,5.270593 z M 55.24086,76.005402 C 50.514191,73.123517 48.007476,68.443247 48.007476,62.5 c 0,-11.965465 11.615882,-19.09428 22.611089,-13.876713 10.309789,4.892315 11.175182,20.367658 1.506382,26.937778 -4.609226,3.13205 -12.150386,3.33051 -16.884087,0.444337 z M 66.80232,67.25 c 3.382545,-2.924793 3.655324,-5.883266 0.805238,-8.733351 C 64.549999,55.45909 63.062689,55.376248 59.634859,58.07258 55.779223,61.105424 56.155787,65.341607 60.5,67.805055 63.272823,69.377423 64.463184,69.272586 66.80232,67.25 z M 35.793585,48.553687 c 1.772962,-3.891229 8.158963,-10.441571 12.872772,-13.204046 4.504185,-2.639629 5.325876,-4.031655 2.9239,-4.95338 -1.822302,-0.699283 -6.591058,1.78952 -11.25209,5.872439 C 36.435823,39.687032 31,47.503045 31,49.695781 c 0,2.272458 3.632097,1.407093 4.793585,-1.142094 z M 30.79838,41.577482 C 34.927837,35.296577 41.993539,29.093553 47.329265,27.064913 49.986382,26.054679 50.880874,23.662444 49.029368,22.51815 47.811679,21.765577 42.904054,24.237389 36.80074,28.677315 31.817674,32.302302 24,42.951215 24,46.113953 c 0,3.58956 2.593736,1.858794 6.79838,-4.536471 z M 22.100864,40.25 C 24.987295,34.234694 35.061157,24.194602 41.227349,21.187631 46.61763,18.559036 47.71329,17.31329 46.075439,15.675439 44.231154,13.831154 34.374284,19.554302 27.49089,26.466097 21.377069,32.605142 15.374203,42.178422 16.498195,43.997079 17.843297,46.173501 19.927287,44.779723 22.100864,40.25 z"
       id="path3053"
       inkscape:connector-curvature="0" />
    <path
       style="fill:#bebebe;fill-opacity:0.94117647"
       d="M 49.112326,115.41945 C 31.726976,110.74394 17.391387,96.962984 11.287279,79.057815 8.4893467,70.850646 8.1707614,56.156299 10.612435,47.931501 16.21028,29.075118 30.410417,15.006469 49.424351,9.478968 53.841097,8.1949852 57.806345,7.8932008 65.872072,8.2271762 77.491733,8.7083083 83.252781,10.409811 93.021244,16.245579 L 98.5,19.518636 l 0.270045,20.66067 0.270045,20.66067 -4.388143,8.330012 c -2.822327,5.357625 -5.059659,8.434862 -6.270045,8.623851 -1.19059,0.185898 -3.607448,3.420582 -6.579214,8.805514 C 77.222525,94.898748 76.656528,98 79.721999,98 c 1.296762,0 1.271128,0.361544 -0.182977,2.58079 -0.930048,1.41943 -1.445926,3.21943 -1.146394,4 0.854989,2.22806 3.539546,1.66218 4.753423,-1.00199 0.790619,-1.73522 1.829661,-2.3727 3.667339,-2.25 2.234616,0.1492 3.174466,-0.91774 7.31283,-8.301714 3.436443,-6.13155 4.462697,-8.817485 3.713803,-9.719846 -0.748775,-0.902219 0.305208,-3.67421 3.812557,-10.027087 L 106.5,64.5 107,46.500468 l 0.5,-17.999533 3.72161,7.091734 c 2.04688,3.900453 4.40938,9.732287 5.25,12.959631 1.943,7.459708 1.96129,20.365501 0.0393,27.744506 -4.91316,18.862885 -20.351219,34.300944 -39.214104,39.214104 -7.150098,1.86236 -21.08758,1.81714 -28.18448,-0.0915 z M 73,80.962115 C 79.94179,77.456553 84,70.645358 84,62.5 84,43.335822 61.160982,34.337847 48.202107,48.396566 39.728907,57.588902 40.0375,68.462181 49.018865,77.175135 56.089572,84.03453 64.336933,85.336912 73,80.962115 z M 55.984398,76.148389 c -10.824924,-5.752371 -10.824924,-21.544407 0,-27.296778 7.678532,-4.080376 16.912246,-1.330454 20.765602,6.184271 2.775884,5.413463 2.839825,9.114254 0.24991,14.464303 -3.677255,7.596196 -13.427284,10.680593 -21.015512,6.648204 z M 67.545455,66.545455 C 68.895455,65.195455 70,63.311958 70,62.359906 70,59.809501 66.002173,56 63.325686,56 60.269386,56 57,59.359478 57,62.5 c 0,3.022802 3.234038,6.5 6.045455,6.5 1.125,0 3.15,-1.104545 4.5,-2.454545 z M 35.79651,48.820457 C 38.594287,43.598441 44.689301,37.443854 48.978381,35.509749 53.014884,33.689539 54.67678,30 51.460162,30 44.670076,30 29.413639,45.423625 31.311524,50.369436 c 0.964956,2.514635 2.612744,1.945539 4.484986,-1.548979 z m -6.30541,-4.80072 c 2.389058,-5.297983 9.69997,-12.576129 15.67328,-15.603035 4.563438,-2.312469 6.037681,-4.555754 3.873113,-5.89353 -1.788929,-1.105619 -11.412839,4.683832 -16.574469,9.970695 -5.101358,5.225129 -9.844726,13.07951 -8.860567,14.671911 1.320696,2.136932 4.200031,0.598631 5.888643,-3.146041 z M 22.621172,39.760879 C 26.029806,33.034264 35.117491,24.175822 41.786446,21.079063 45.288524,19.452857 47,18.057691 47,16.829063 47,15.814344 46.283178,15 45.389977,15 c -3.557004,0 -13.722952,6.602291 -19.171241,12.450793 -5.869777,6.300952 -10.834304,14.74418 -9.724895,16.539241 1.396104,2.258944 3.615978,0.726762 6.127331,-4.229155 z"
       id="path3051"
       inkscape:connector-curvature="0" />
  </g>
</svg>
