<?xml version="1.0" encoding="UTF-8" standalone="no"?>
<!-- Created with Inkscape (http://www.inkscape.org/) -->

<svg
   xmlns:dc="http://purl.org/dc/elements/1.1/"
   xmlns:cc="http://creativecommons.org/ns#"
   xmlns:rdf="http://www.w3.org/1999/02/22-rdf-syntax-ns#"
   xmlns:svg="http://www.w3.org/2000/svg"
   xmlns="http://www.w3.org/2000/svg"
   xmlns:xlink="http://www.w3.org/1999/xlink"
   xmlns:sodipodi="http://sodipodi.sourceforge.net/DTD/sodipodi-0.dtd"
   xmlns:inkscape="http://www.inkscape.org/namespaces/inkscape"
   width="744.09448819"
   height="1052.3622047"
   id="svg2"
   sodipodi:version="0.32"
   inkscape:version="0.47 r22583"
   version="1.1"
   sodipodi:docname="New document 1.2009_11_04_18_16_23.0.2009_11_29_20_35_24.0.svg">
  <defs
     id="defs4">
    <linearGradient
       inkscape:collect="always"
       id="linearGradient3612">
      <stop
         style="stop-color:#ffffff;stop-opacity:1;"
         offset="0"
         id="stop3614" />
      <stop
         style="stop-color:#ffffff;stop-opacity:0;"
         offset="1"
         id="stop3616" />
    </linearGradient>
    <linearGradient
       id="linearGradient3157">
      <stop
         style="stop-color:#ffffff;stop-opacity:0.57391304;"
         offset="0"
         id="stop3159" />
      <stop
         style="stop-color:#ffffff;stop-opacity:0;"
         offset="1"
         id="stop3161" />
    </linearGradient>
    <inkscape:perspective
       sodipodi:type="inkscape:persp3d"
       inkscape:vp_x="0 : 526.18109 : 1"
       inkscape:vp_y="0 : 1000 : 0"
       inkscape:vp_z="744.09448 : 526.18109 : 1"
       inkscape:persp3d-origin="372.04724 : 350.78739 : 1"
       id="perspective10" />
    <radialGradient
       inkscape:collect="always"
       xlink:href="#linearGradient3157"
       id="radialGradient3163"
       cx="307.14285"
       cy="582.36218"
       fx="307.14285"
       fy="582.36218"
       r="158.57143"
       gradientUnits="userSpaceOnUse" />
    <radialGradient
       inkscape:collect="always"
       xlink:href="#linearGradient3157"
       id="radialGradient3187"
       gradientUnits="userSpaceOnUse"
       cx="307.14285"
       cy="582.36218"
       fx="307.14285"
       fy="582.36218"
       r="158.57143" />
    <clipPath
       clipPathUnits="userSpaceOnUse"
       id="clipPath3195">
      <path
         sodipodi:type="arc"
         style="opacity:1;fill:#000000;fill-opacity:1;fill-rule:evenodd;stroke:none"
         id="path3197"
         sodipodi:cx="268.57144"
         sodipodi:cy="569.50507"
         sodipodi:rx="171.42857"
         sodipodi:ry="171.42857"
         d="M 440.00002,569.50507 A 171.42857,171.42857 0 1 1 97.142868,569.50507 A 171.42857,171.42857 0 1 1 440.00002,569.50507 z"
         transform="matrix(0.5151267,0,0,0.5151267,47.101979,154.22678)" />
    </clipPath>
    <clipPath
       clipPathUnits="userSpaceOnUse"
       id="clipPath3205">
      <path
         sodipodi:type="arc"
         style="opacity:1;fill:#000000;fill-opacity:1;fill-rule:evenodd;stroke:none"
         id="path3207"
         sodipodi:cx="268.57144"
         sodipodi:cy="569.50507"
         sodipodi:rx="171.42857"
         sodipodi:ry="171.42857"
         d="M 440.00002,569.50507 A 171.42857,171.42857 0 1 1 97.142868,569.50507 A 171.42857,171.42857 0 1 1 440.00002,569.50507 z"
         transform="matrix(0.5151267,0,0,0.5151267,385.50521,158.17142)" />
    </clipPath>
    <radialGradient
       inkscape:collect="always"
       xlink:href="#linearGradient3612"
       id="radialGradient3618"
       cx="307.14285"
       cy="582.36218"
       fx="307.14285"
       fy="582.36218"
       r="158.57143"
       gradientUnits="userSpaceOnUse" />
    <radialGradient
       inkscape:collect="always"
       xlink:href="#linearGradient3612"
       id="radialGradient3639"
       gradientUnits="userSpaceOnUse"
       cx="307.14285"
       cy="582.36218"
       fx="307.14285"
       fy="582.36218"
       r="158.57143" />
  </defs>
  <sodipodi:namedview
     id="base"
     pagecolor="#ffffff"
     bordercolor="#666666"
     borderopacity="1.0"
     gridtolerance="10000"
     guidetolerance="10"
     objecttolerance="10"
     inkscape:pageopacity="0.0"
     inkscape:pageshadow="2"
     inkscape:zoom="0.35"
     inkscape:cx="-159.28571"
     inkscape:cy="405.71429"
     inkscape:document-units="px"
     inkscape:current-layer="g3620"
     showgrid="false"
     inkscape:window-width="1400"
     inkscape:window-height="1002"
     inkscape:window-x="0"
     inkscape:window-y="0"
     inkscape:window-maximized="0" />
  <metadata
     id="metadata7">
    <rdf:RDF>
      <cc:Work
         rdf:about="">
        <dc:format>image/svg+xml</dc:format>
        <dc:type
           rdf:resource="http://purl.org/dc/dcmitype/StillImage" />
        <dc:title></dc:title>
      </cc:Work>
    </rdf:RDF>
  </metadata>
  <g
     inkscape:label="Layer 1"
     inkscape:groupmode="layer"
     id="layer1">
    <g
       id="g3620">
      <g
         id="g2835"
         transform="matrix(-1,0,0,1,370.9006,0)">
        <path
           d="m 440.00002,569.50507 c 0,94.67738 -76.75119,171.42857 -171.42858,171.42857 -94.67739,0 -171.428572,-76.75119 -171.428572,-171.42857 0,-94.67739 76.751182,-171.42858 171.428572,-171.42858 94.67739,0 171.42858,76.75119 171.42858,171.42858 z"
           sodipodi:ry="171.42857"
           sodipodi:rx="171.42857"
           sodipodi:cy="569.50507"
           sodipodi:cx="268.57144"
           id="path3173"
           style="fill:#4d4d4d;fill-opacity:1;fill-rule:evenodd;stroke:none"
           sodipodi:type="arc"
           transform="matrix(0.5151267,0,0,0.5151267,47.101979,154.22678)" />
        <path
           style="fill:#000000;fill-opacity:1;fill-rule:evenodd;stroke:none"
           d="m 193.02128,416.31621 0,17.11698 -69.31988,0 0,28.32175 69.31988,0 0,17.11698 27.09543,-15.63248 27.08251,-15.64537 -27.08251,-15.63248 -27.09543,-15.64538 z"
           id="rect3165" />
        <path
           d="m 440.00002,569.50507 c 0,94.67738 -76.75119,171.42857 -171.42858,171.42857 -94.67739,0 -171.428572,-76.75119 -171.428572,-171.42857 0,-94.67739 76.751182,-171.42858 171.428572,-171.42858 94.67739,0 171.42858,76.75119 171.42858,171.42858 z"
           sodipodi:ry="171.42857"
           sodipodi:rx="171.42857"
           sodipodi:cy="569.50507"
           sodipodi:cx="268.57144"
           id="path3175"
           style="fill:none;stroke:#808080;stroke-width:10.80000019;stroke-miterlimit:4;stroke-opacity:1;stroke-dasharray:none"
           sodipodi:type="arc"
           transform="matrix(0.4679068,0,0,0.4679068,59.783914,181.11879)" />
      </g>
      <path
         transform="matrix(0.5847384,0,0,0.5847384,30.872504,70.269726)"
         d="m 465.71428,582.36218 a 158.57143,158.57143 0 1 1 -317.14285,0 158.57143,158.57143 0 1 1 317.14285,0 z"
         sodipodi:ry="158.57143"
         sodipodi:rx="158.57143"
         sodipodi:cy="582.36218"
         sodipodi:cx="307.14285"
         id="path2385"
         style="fill:url(#radialGradient3618);fill-opacity:1;fill-rule:evenodd;stroke:none"
         sodipodi:type="arc" />
    </g>
    <g
       id="g3627"
       transform="translate(314.28571,5.7142857)">
      <g
         id="g3629">
        <path
           transform="matrix(0.5151267,0,0,0.5151267,47.101979,154.22678)"
           sodipodi:type="arc"
           style="fill:#4d4d4d;fill-opacity:1;fill-rule:evenodd;stroke:none"
           id="path3631"
           sodipodi:cx="268.57144"
           sodipodi:cy="569.50507"
           sodipodi:rx="171.42857"
           sodipodi:ry="171.42857"
           d="m 440.00002,569.50507 c 0,94.67738 -76.75119,171.42857 -171.42858,171.42857 -94.67739,0 -171.428572,-76.75119 -171.428572,-171.42857 0,-94.67739 76.751182,-171.42858 171.428572,-171.42858 94.67739,0 171.42858,76.75119 171.42858,171.42858 z" />
        <path
           id="path3633"
           d="m 193.02128,416.31621 0,17.11698 -69.31988,0 0,28.32175 69.31988,0 0,17.11698 27.09543,-15.63248 27.08251,-15.64537 -27.08251,-15.63248 -27.09543,-15.64538 z"
           style="fill:#000000;fill-opacity:1;fill-rule:evenodd;stroke:none" />
        <path
           transform="matrix(0.4679068,0,0,0.4679068,59.783914,181.11879)"
           sodipodi:type="arc"
           style="fill:none;stroke:#808080;stroke-width:10.80000019;stroke-miterlimit:4;stroke-opacity:1;stroke-dasharray:none"
           id="path3635"
           sodipodi:cx="268.57144"
           sodipodi:cy="569.50507"
           sodipodi:rx="171.42857"
           sodipodi:ry="171.42857"
           d="m 440.00002,569.50507 c 0,94.67738 -76.75119,171.42857 -171.42858,171.42857 -94.67739,0 -171.428572,-76.75119 -171.428572,-171.42857 0,-94.67739 76.751182,-171.42858 171.428572,-171.42858 94.67739,0 171.42858,76.75119 171.42858,171.42858 z" />
      </g>
      <path
         sodipodi:type="arc"
         style="fill:url(#radialGradient3639);fill-opacity:1;fill-rule:evenodd;stroke:none"
         id="path3637"
         sodipodi:cx="307.14285"
         sodipodi:cy="582.36218"
         sodipodi:rx="158.57143"
         sodipodi:ry="158.57143"
         d="m 465.71428,582.36218 c 0,87.57658 -70.99485,158.57143 -158.57143,158.57143 -87.57658,0 -158.57142,-70.99485 -158.57142,-158.57143 0,-87.57658 70.99484,-158.57142 158.57142,-158.57142 87.57658,0 158.57143,70.99484 158.57143,158.57142 z"
         transform="matrix(0.5847384,0,0,0.5847384,30.872504,70.269726)" />
    </g>
  </g>
</svg>
