<?xml version="1.0" encoding="UTF-8" standalone="no"?>
<!-- Created with Inkscape (http://www.inkscape.org/) -->

<svg
   xmlns:dc="http://purl.org/dc/elements/1.1/"
   xmlns:cc="http://creativecommons.org/ns#"
   xmlns:rdf="http://www.w3.org/1999/02/22-rdf-syntax-ns#"
   xmlns:svg="http://www.w3.org/2000/svg"
   xmlns="http://www.w3.org/2000/svg"
   xmlns:xlink="http://www.w3.org/1999/xlink"
   xmlns:sodipodi="http://sodipodi.sourceforge.net/DTD/sodipodi-0.dtd"
   xmlns:inkscape="http://www.inkscape.org/namespaces/inkscape"
   width="744.09448819"
   height="1052.3622047"
   id="svg2"
   version="1.1"
   inkscape:version="0.48.3.1 r9886"
   sodipodi:docname="Franco.svg">
  <defs
     id="defs4">
    <linearGradient
       y2="244.95164"
       x2="99.124153"
       y1="400.5535"
       x1="101.42937"
       gradientTransform="matrix(1.340328,0,0,1.340328,-31.467381,555.95415)"
       gradientUnits="userSpaceOnUse"
       id="linearGradient6460-1"
       xlink:href="#linearGradient6364-8"
       inkscape:collect="always" />
    <linearGradient
       inkscape:collect="always"
       id="linearGradient6364-8">
      <stop
         style="stop-color:#4d4d4d;stop-opacity:1;"
         offset="0"
         id="stop6366-5" />
      <stop
         style="stop-color:#4d4d4d;stop-opacity:0;"
         offset="1"
         id="stop6368-9" />
    </linearGradient>
    <linearGradient
       y2="244.95164"
       x2="99.124153"
       y1="400.5535"
       x1="101.42937"
       gradientTransform="matrix(1.340328,0,0,1.340328,133.59345,299.76445)"
       gradientUnits="userSpaceOnUse"
       id="linearGradient3022"
       xlink:href="#linearGradient6364-8"
       inkscape:collect="always" />
    <linearGradient
       inkscape:collect="always"
       xlink:href="#linearGradient6364-8"
       id="linearGradient3966"
       x1="440.96436"
       y1="94.980904"
       x2="447.48547"
       y2="491.33676"
       gradientUnits="userSpaceOnUse" />
    <linearGradient
       inkscape:collect="always"
       xlink:href="#linearGradient6364-8-2"
       id="linearGradient3966-8"
       x1="440.96436"
       y1="94.980904"
       x2="447.48547"
       y2="491.33676"
       gradientUnits="userSpaceOnUse" />
    <linearGradient
       inkscape:collect="always"
       id="linearGradient6364-8-2">
      <stop
         style="stop-color:#4d4d4d;stop-opacity:1;"
         offset="0"
         id="stop6366-5-8" />
      <stop
         style="stop-color:#4d4d4d;stop-opacity:0;"
         offset="1"
         id="stop6368-9-1" />
    </linearGradient>
    <filter
       id="filter4002"
       inkscape:label="Inner Shadow"
       inkscape:menu="Shadows and Glows"
       inkscape:menu-tooltip="Adds a colorizable drop shadow inside"
       color-interpolation-filters="sRGB">
      <feGaussianBlur
         id="feGaussianBlur4004"
         stdDeviation="7"
         result="result8" />
      <feOffset
         id="feOffset4006"
         dx="4"
         dy="4"
         result="result11" />
      <feComposite
         id="feComposite4008"
         in2="result11"
         result="result6"
         in="SourceGraphic"
         operator="in" />
      <feFlood
         id="feFlood4010"
         result="result10"
         in="result6"
         flood-opacity="1"
         flood-color="rgb(0,0,0)" />
      <feBlend
         id="feBlend4012"
         in2="result10"
         mode="normal"
         in="result6"
         result="result12" />
      <feComposite
         id="feComposite4014"
         in2="SourceGraphic"
         result="result2"
         operator="in" />
    </filter>
  </defs>
  <sodipodi:namedview
     id="base"
     pagecolor="#ffffff"
     bordercolor="#666666"
     borderopacity="1.0"
     inkscape:pageopacity="0.0"
     inkscape:pageshadow="2"
     inkscape:zoom="0.52225797"
     inkscape:cx="353.55944"
     inkscape:cy="380.57923"
     inkscape:document-units="px"
     inkscape:current-layer="layer1"
     showgrid="false"
     inkscape:window-width="1280"
     inkscape:window-height="1000"
     inkscape:window-x="0"
     inkscape:window-y="24"
     inkscape:window-maximized="1" />
  <metadata
     id="metadata7">
    <rdf:RDF>
      <cc:Work
         rdf:about="">
        <dc:format>image/svg+xml</dc:format>
        <dc:type
           rdf:resource="http://purl.org/dc/dcmitype/StillImage" />
        <dc:title></dc:title>
      </cc:Work>
    </rdf:RDF>
  </metadata>
  <g
     inkscape:label="Layer 1"
     inkscape:groupmode="layer"
     id="layer1">
    <path
       id="path3048"
       style="fill:#333333"
       d="m 196.23032,388.02753 c -3.1625,-0.17639 -5.74997,-0.41075 -5.74994,-0.5208 4e-5,-0.11006 1.35004,-7.10107 3,-15.53558 1.64997,-8.43452 2.99994,-15.52202 2.99994,-15.75 0,-0.22799 3.08413,-0.41452 6.85362,-0.41452 l 6.85363,0 3.13824,15.6748 c 1.72603,8.62114 3.0294,15.7589 2.89638,15.86169 -0.62424,0.48234 -14.87054,0.97005 -19.99187,0.68441 z m -37.58129,91.8046 c 5.68507,-26.43563 21.62839,-41.0255 44.83129,-41.0255 18.15518,0 31.82505,8.81969 39.52313,25.5 2.87004,6.21885 3.86007,9.44962 6.43518,21 l 0.66884,3 21.92273,0 c 20.18917,0 21.94973,-0.14015 22.26407,-1.77237 0.40759,-2.11648 -10.69635,-24.34334 -26.54806,-53.14148 -11.39707,-20.70531 -11.50643,-20.96649 -10.96706,-26.19245 0.39075,-3.78605 0.15862,-5.5991 -0.82097,-6.41209 -1.04547,-0.86766 -1.11356,-1.68703 -0.29035,-3.49378 1.48268,-3.25413 0.45149,-5.28386 -2.87844,-5.66571 -2.4629,-0.28243 -3.42556,-1.55441 -7.8119,-10.32212 -6.23802,-12.46895 -13.04989,-32.67223 -12.70848,-37.69199 0.14323,-2.10603 -0.32646,-4.23152 -1.0934,-4.94795 -1.12497,-1.05087 -1.10874,-1.72854 0.0994,-4.15034 0.79415,-1.59191 1.50272,-5.1916 1.5746,-7.9993 0.11147,-4.35393 -0.19922,-5.27281 -2.112,-6.24624 -3.68961,-1.87767 -6.00171,-5.26503 -6.6488,-9.74089 -1.36194,-9.42061 -8.59426,-100.10119 -10.02716,-125.72329 -1.81034,-32.3711 -1.86263,-43.55534 -0.21854,-46.73467 2.00375,-3.87483 2.13663,-10.60596 0.24044,-12.17965 -0.76822,-0.63757 -1.16783,-2.03465 -0.88802,-3.10463 0.37015,-1.41548 -0.18621,-2.20962 -2.04244,-2.91536 -3.73433,-1.41979 -4.67277,-4.0055 -4.67277,-12.87495 0,-10.503593 -0.78166,-14.190743 -3.00837,-14.190743 -2.34316,0 -2.96163,2.76543 -2.97798,13.315743 -0.0151,9.73751 -0.89079,12.30685 -4.68642,13.74995 -1.90884,0.72574 -2.41663,1.48443 -2.01682,3.0133 0.32514,1.24334 -0.0225,2.25705 -0.88803,2.58917 -2.02638,0.77759 -1.87332,9.71399 0.22113,12.91052 1.43529,2.19053 1.57348,5.00498 1.09076,22.21482 -0.30401,10.83857 -1.0474,24.6565 -1.65198,30.7065 -0.60458,6.05 -2.02755,24.275 -3.16216,40.5 -1.80776,25.85116 -3.20459,43.53305 -5.49034,69.5 -1.10665,12.57186 -2.71725,16.47258 -7.85201,19.01682 -2.69729,1.33648 -3.098,5.22174 -1.20469,11.68045 1.09273,3.72763 1.22363,5.68776 0.47345,7.08948 -0.57027,1.06555 -0.81718,3.08648 -0.5487,4.49096 0.65367,3.41945 -7.51963,27.25432 -13.27839,38.72229 -4.17675,8.31754 -4.76589,9.02376 -7.76945,9.31336 -3.47466,0.33502 -4.25346,2.44314 -2.27101,6.14738 0.70326,1.31405 0.58446,2.15668 -0.42181,2.99181 -1.02028,0.84675 -1.25209,2.60341 -0.85335,6.46677 0.53305,5.16476 0.33701,5.68256 -7.45546,19.69245 -11.62472,20.89979 -25.68313,47.58052 -28.25219,53.61838 -3.64643,8.56989 -4.21545,8.34839 20.65307,8.03942 l 21.697,-0.26957 1.82246,-8.4745 z"
       inkscape:connector-curvature="0"
       inkscape:export-filename="/home/jrbastien/Ubuntu One/CoverArt/0.8 dark icons/Tour_Effel_Dark.png"
       inkscape:export-xdpi="29.227327"
       inkscape:export-ydpi="29.227327" />
    <path
       style="fill:#000000"
       d=""
       id="path3019"
       inkscape:connector-curvature="0" />
    <path
       style="fill:#000000"
       d=""
       id="path3017"
       inkscape:connector-curvature="0" />
    <path
       style="fill:#000000"
       d=""
       id="path3015"
       inkscape:connector-curvature="0" />
    <path
       style="fill:#000000"
       d=""
       id="path3013"
       inkscape:connector-curvature="0" />
    <path
       id="path3048-1"
       style="fill:url(#linearGradient3966);stroke:#666666;fill-opacity:1;stroke-width:3;stroke-miterlimit:4;stroke-dasharray:none"
       d="m 435.07498,387.56901 c -3.1625,-0.17639 -5.74997,-0.41075 -5.74994,-0.5208 4e-5,-0.11006 1.35004,-7.10107 3,-15.53558 1.64997,-8.43452 2.99994,-15.52202 2.99994,-15.75 0,-0.22799 3.08413,-0.41452 6.85362,-0.41452 l 6.85363,0 3.13824,15.6748 c 1.72603,8.62114 3.0294,15.7589 2.89638,15.86169 -0.62424,0.48234 -14.87054,0.97005 -19.99187,0.68441 z m -37.58129,91.8046 c 5.68507,-26.43563 21.62839,-41.0255 44.83129,-41.0255 18.15518,0 31.82505,8.81969 39.52313,25.5 2.87004,6.21885 3.86007,9.44962 6.43518,21 l 0.66884,3 21.92273,0 c 20.18917,0 21.94973,-0.14015 22.26407,-1.77237 0.40759,-2.11648 -10.69635,-24.34334 -26.54806,-53.14148 -11.39707,-20.70531 -11.50643,-20.96649 -10.96706,-26.19245 0.39075,-3.78605 0.15862,-5.5991 -0.82097,-6.41209 -1.04547,-0.86766 -1.11356,-1.68703 -0.29035,-3.49378 1.48268,-3.25413 0.45149,-5.28386 -2.87844,-5.66571 -2.4629,-0.28243 -3.42556,-1.55441 -7.8119,-10.32212 -6.23802,-12.46895 -13.04989,-32.67223 -12.70848,-37.69199 0.14323,-2.10603 -0.32646,-4.23152 -1.0934,-4.94795 -1.12497,-1.05087 -1.10874,-1.72854 0.0994,-4.15034 0.79415,-1.59191 1.50272,-5.1916 1.5746,-7.9993 0.11147,-4.35393 -0.19922,-5.27281 -2.112,-6.24624 -3.68961,-1.87767 -6.00171,-5.26503 -6.6488,-9.74089 -1.36194,-9.42061 -8.59426,-100.10119 -10.02716,-125.72329 -1.81034,-32.3711 -1.86263,-43.55534 -0.21854,-46.73467 2.00375,-3.87483 2.13663,-10.60596 0.24044,-12.17965 -0.76822,-0.63757 -1.16783,-2.03465 -0.88802,-3.10463 0.37015,-1.41548 -0.18621,-2.20962 -2.04244,-2.91536 -3.73433,-1.41979 -4.67277,-4.0055 -4.67277,-12.87495 0,-10.503592 -0.78166,-14.190742 -3.00837,-14.190742 -2.34316,0 -2.96163,2.76543 -2.97798,13.315742 -0.0151,9.73751 -0.89079,12.30685 -4.68642,13.74995 -1.90884,0.72574 -2.41663,1.48443 -2.01682,3.0133 0.32514,1.24334 -0.0225,2.25705 -0.88803,2.58917 -2.02638,0.77759 -1.87332,9.71399 0.22113,12.91052 1.43529,2.19053 1.57348,5.00498 1.09076,22.21482 -0.30401,10.83857 -1.0474,24.6565 -1.65198,30.7065 -0.60458,6.05 -2.02755,24.275 -3.16216,40.5 -1.80776,25.85116 -3.20459,43.53305 -5.49034,69.5 -1.10665,12.57186 -2.71725,16.47258 -7.85201,19.01682 -2.69729,1.33648 -3.098,5.22174 -1.20469,11.68045 1.09273,3.72763 1.22363,5.68776 0.47345,7.08948 -0.57027,1.06555 -0.81718,3.08648 -0.5487,4.49096 0.65367,3.41945 -7.51963,27.25432 -13.27839,38.72229 -4.17675,8.31754 -4.76589,9.02376 -7.76945,9.31336 -3.47466,0.33502 -4.25346,2.44314 -2.27101,6.14738 0.70326,1.31405 0.58446,2.15668 -0.42181,2.99181 -1.02028,0.84675 -1.25209,2.60341 -0.85335,6.46677 0.53305,5.16476 0.33701,5.68256 -7.45546,19.69245 -11.62472,20.89979 -25.68313,47.58052 -28.25219,53.61838 -3.64643,8.56989 -4.21545,8.34839 20.65307,8.03942 l 21.697,-0.26957 1.82246,-8.4745 z"
       inkscape:connector-curvature="0"
       inkscape:export-filename="/home/jrbastien/Ubuntu One/CoverArt/0.8 icons/Tour_Effel.png"
       inkscape:export-xdpi="28.748562"
       inkscape:export-ydpi="28.748562" />
    <path
       id="path3048-1-8"
       style="fill:#b3b3b3;fill-opacity:1;stroke:none;stroke-width:3;stroke-miterlimit:4;stroke-dasharray:none;filter:url(#filter4002)"
       d="m 201.47395,870.08916 c -3.1625,-0.17639 -5.74997,-0.41075 -5.74994,-0.5208 4e-5,-0.11006 1.35004,-7.10107 3,-15.53558 1.64997,-8.43452 2.99994,-15.52202 2.99994,-15.75 0,-0.22799 3.08413,-0.41452 6.85362,-0.41452 l 6.85363,0 3.13824,15.6748 c 1.72603,8.62114 3.0294,15.7589 2.89638,15.86169 -0.62424,0.48234 -14.87054,0.97005 -19.99187,0.68441 z m -37.58129,91.8046 c 5.68507,-26.43563 21.62839,-41.0255 44.83129,-41.0255 18.15518,0 31.82505,8.81969 39.52313,25.5 2.87004,6.21885 3.86007,9.44962 6.43518,21 l 0.66884,3 21.92273,0 c 20.18917,0 21.94973,-0.14015 22.26407,-1.77237 0.40759,-2.11648 -10.69635,-24.34334 -26.54806,-53.14148 -11.39707,-20.70531 -11.50643,-20.96649 -10.96706,-26.19245 0.39075,-3.78605 0.15862,-5.5991 -0.82097,-6.41209 -1.04547,-0.86766 -1.11356,-1.68703 -0.29035,-3.49378 1.48268,-3.25413 0.45149,-5.28386 -2.87844,-5.66571 -2.4629,-0.28243 -3.42556,-1.55441 -7.8119,-10.32212 -6.23802,-12.46895 -13.04989,-32.67223 -12.70848,-37.69199 0.14323,-2.10603 -0.32646,-4.23152 -1.0934,-4.94795 -1.12497,-1.05087 -1.10874,-1.72854 0.0994,-4.15034 0.79415,-1.59191 1.50272,-5.1916 1.5746,-7.9993 0.11147,-4.35393 -0.19922,-5.27281 -2.112,-6.24624 -3.68961,-1.87767 -6.00171,-5.26503 -6.6488,-9.74089 -1.36194,-9.42061 -8.59426,-100.10119 -10.02716,-125.72328 -1.81034,-32.3711 -1.86263,-43.55534 -0.21854,-46.73467 2.00375,-3.87483 2.13663,-10.60596 0.24044,-12.17965 -0.76822,-0.63757 -1.16783,-2.03465 -0.88802,-3.10463 0.37015,-1.41548 -0.18621,-2.20962 -2.04244,-2.91536 -3.73433,-1.41979 -4.67277,-4.0055 -4.67277,-12.87495 0,-10.5036 -0.78166,-14.19075 -3.00837,-14.19075 -2.34316,0 -2.96163,2.76543 -2.97798,13.31575 -0.0151,9.73751 -0.89079,12.30685 -4.68642,13.74995 -1.90884,0.72574 -2.41663,1.48443 -2.01682,3.0133 0.32514,1.24334 -0.0225,2.25705 -0.88803,2.58917 -2.02638,0.77759 -1.87332,9.71399 0.22113,12.91052 1.43529,2.19053 1.57348,5.00498 1.09076,22.21482 -0.30401,10.83857 -1.0474,24.6565 -1.65198,30.70649 -0.60458,6.05 -2.02755,24.275 -3.16216,40.5 -1.80776,25.85116 -3.20459,43.53305 -5.49034,69.5 -1.10665,12.57186 -2.71725,16.47258 -7.85201,19.01682 -2.69729,1.33648 -3.098,5.22174 -1.20469,11.68045 1.09273,3.72763 1.22363,5.68776 0.47345,7.08948 -0.57027,1.06555 -0.81718,3.08648 -0.5487,4.49096 0.65367,3.41945 -7.51963,27.25432 -13.27839,38.72229 -4.17675,8.31754 -4.76589,9.02376 -7.76945,9.31336 -3.47466,0.33502 -4.25346,2.44314 -2.27101,6.14738 0.70326,1.31405 0.58446,2.15668 -0.42181,2.99181 -1.02028,0.84675 -1.25209,2.60341 -0.85335,6.46677 0.53305,5.16476 0.33701,5.68256 -7.45546,19.69245 -11.62472,20.89979 -25.68313,47.58052 -28.25219,53.61838 -3.64643,8.56989 -4.21545,8.34839 20.65307,8.03942 l 21.697,-0.26957 1.82246,-8.4745 z"
       inkscape:connector-curvature="0"
       inkscape:export-filename="/home/jrbastien/Ubuntu One/CoverArt/0.8 light/Tour_Effel_Light.png"
       inkscape:export-xdpi="100"
       inkscape:export-ydpi="100" />
  </g>
</svg>
